<svg viewBox="0 0 40 60" xmlns="http://www.w3.org/2000/svg">
  <!-- Hand-drawn arrow shaft with natural variations -->
  <path d="M19.8 9.5 Q20.3 12.1 19.7 15.2 Q20.5 18.8 19.9 22.3 Q20.2 25.9 19.6 29.1 Q20.1 32.7 19.8 36.2 Q19.5 39.8 20.3 42.9" 
        stroke="#333136" 
        stroke-width="2.8" 
        fill="none" 
        stroke-linecap="round"/>
  
  <!-- Hand-drawn arrowhead with irregular lines -->
  <path d="M14.7 38.9 Q16.2 40.1 17.8 41.5 Q19.1 42.7 20.2 43.8 Q21.6 42.4 23.2 41.1 Q24.8 39.5 26.1 38.2" 
        stroke="#333136" 
        stroke-width="2.8" 
        fill="none" 
        stroke-linecap="round"/>
  
  <!-- Hand-drawn dot with wobbles -->
  <path d="M17.2 7.8 Q18.9 6.5 20.8 7.1 Q22.4 8.2 22.7 10.1 Q21.8 11.7 20.1 11.9 Q18.3 11.2 16.9 9.8 Q17.0 8.9 17.2 7.8 Z" 
        stroke="#d2202e" 
        stroke-width="2.2" 
        fill="none"/>
</svg>