<svg viewBox="0 0 200 80" xmlns="http://www.w3.org/2000/svg">
  <!-- Simple hand-drawn oval with natural variations -->
  <path d="M15.3 40.2 Q18.7 25.1 28.8 15.9 Q40.9 8.7 55.4 6.3 Q70.2 4.1 85.7 5.8 Q101.1 7.2 115.8 11.4 Q129.2 16.1 140.3 23.7 Q150.8 31.9 158.7 42.8 Q165.1 53.2 168.4 64.7 Q170.8 76.3 170.9 87.8 Q170.7 99.1 167.2 109.6 Q162.8 119.4 155.9 127.2 Q147.1 134.7 136.8 139.4 Q125.7 143.9 114.2 145.1 Q102.6 145.7 91.1 143.8 Q79.9 141.3 69.7 136.4 Q60.1 130.8 52.2 123.2 Q45.7 114.1 41.8 103.4 Q38.9 92.2 38.1 80.7 Q38.7 69.1 15.3 40.2 Z" 
        stroke="#d2202e" 
        stroke-width="2.8" 
        fill="none" 
        stroke-linecap="round"
        opacity="0.7"/>
</svg>