<svg viewBox="0 0 30 30" xmlns="http://www.w3.org/2000/svg">
  <!-- Outer hand-drawn circle with wobbles and dashes -->
  <path d="M26.8 14.7 Q26.2 11.9 24.1 9.8 Q21.7 7.2 18.9 5.9 Q15.8 4.1 12.2 4.3 Q8.9 4.8 6.1 7.1 Q3.7 9.8 3.2 13.1 Q2.9 16.7 4.8 19.8 Q6.9 22.5 10.1 24.2 Q13.6 25.8 17.2 25.4 Q20.8 24.9 23.7 22.8 Q25.9 20.3 26.7 17.1 Q27.1 15.9 26.8 14.7" 
        stroke="#333136" 
        stroke-width="2.2" 
        fill="none" 
        stroke-linecap="round"
        stroke-dasharray="2.8,2.3,3.5,1.9"/>
  
  <!-- Inner hand-drawn circle with slight fill -->
  <path d="M20.7 15.2 Q20.4 12.8 18.9 11.1 Q17.2 9.6 14.8 9.3 Q12.1 9.1 10.2 10.7 Q8.9 12.5 9.2 14.9 Q9.6 17.1 11.3 18.7 Q13.1 20.2 15.6 20.4 Q17.9 20.1 19.4 18.6 Q20.8 16.9 20.7 15.2 Z" 
        stroke="#d2202e" 
        stroke-width="1.8" 
        fill="rgba(210, 32, 46, 0.08)"/>
</svg>