<svg viewBox="0 0 500 300" xmlns="http://www.w3.org/2000/svg">
  <!-- Hand-drawn confession box outline only - no fill -->
  <path d="M28.4 45.7 Q32.1 38.2 39.8 34.5 Q48.9 29.7 58.6 28.1 Q88.7 23.8 118.9 25.2 Q149.3 26.9 179.6 28.7 Q209.8 30.8 240.1 32.1 Q270.4 33.9 300.7 35.8 Q331.1 38.2 361.4 40.9 Q391.8 44.1 422.1 47.8 Q452.5 52.1 468.3 58.9 Q472.8 61.2 475.1 65.8 Q477.9 70.7 478.4 76.2 Q479.1 96.4 477.8 116.6 Q476.2 136.8 474.9 157.1 Q473.1 177.3 471.8 197.5 Q470.2 217.8 468.9 238.1 Q467.3 258.3 465.7 268.7 Q463.8 273.9 460.1 278.2 Q455.7 282.1 450.4 284.8 Q420.3 289.1 390.1 287.4 Q359.9 285.2 329.7 283.6 Q299.5 281.7 269.3 279.9 Q239.1 277.8 208.9 275.4 Q178.7 272.8 148.5 270.1 Q118.3 267.2 88.1 264.7 Q57.9 261.9 27.7 258.8 Q22.4 257.9 18.2 254.3 Q14.7 250.1 13.1 244.8 Q11.8 224.6 13.2 204.4 Q14.9 184.2 16.3 164.0 Q18.1 143.8 19.8 123.6 Q21.7 103.4 23.9 83.2 Q26.2 63.0 28.4 45.7 Z" 
        stroke="#333136" 
        stroke-width="3.2" 
        fill="none" 
        stroke-linecap="round"
        opacity="0.8"/>
  
  <!-- Corner torn paper effect -->
  <path d="M455.3 42.1 Q458.7 38.8 463.2 37.4 Q467.8 36.9 471.9 39.1 Q474.8 41.7 476.2 45.6 Q477.1 49.8 475.9 53.7 Q473.8 57.2 470.1 59.3 Q466.1 60.8 461.9 60.2 Q458.2 59.1 455.7 56.4 Q454.1 53.2 454.6 49.7 Q455.8 46.1 455.3 42.1 Z" 
        stroke="#d2202e" 
        stroke-width="2.1" 
        fill="none" 
        stroke-linecap="round"/>
  
  <!-- Hand-drawn dashed border accent -->
  <path d="M45.8 52.3 Q48.2 51.1 50.9 51.8 M68.7 53.2 Q71.4 52.9 74.1 53.6 M91.8 54.8 Q94.5 54.2 97.2 54.9 M415.3 67.8 Q418.1 67.2 420.8 67.9 M438.2 69.4 Q440.9 68.8 443.6 69.5" 
        stroke="#d2202e" 
        stroke-width="2.5" 
        fill="none" 
        stroke-linecap="round"
        opacity="0.7"/>
  
  <!-- Bottom edge accent -->
  <path d="M52.1 268.4 Q54.8 267.8 57.5 268.5 M75.4 269.9 Q78.1 269.3 80.8 270.0 M98.7 271.5 Q101.4 270.9 104.1 271.6 M408.6 281.2 Q411.3 280.6 414.0 281.3 M431.9 282.8 Q434.6 282.2 437.3 282.9" 
        stroke="#d2202e" 
        stroke-width="2.5" 
        fill="none" 
        stroke-linecap="round"
        opacity="0.7"/>
</svg>