<svg viewBox="0 0 50 50" xmlns="http://www.w3.org/2000/svg">
  <!-- Hand-drawn star with organic, wobbly lines -->
  <path d="M25.2 4.8 Q26.1 6.3 27.8 8.9 Q29.4 11.7 30.8 14.2 Q31.9 16.8 30.1 17.9 Q32.8 18.1 35.9 17.7 Q39.2 18.3 42.1 18.8 Q43.8 19.2 43.2 20.1 Q41.9 21.8 39.8 23.4 Q37.1 25.3 34.7 27.1 Q32.8 28.9 33.2 30.8 Q34.1 33.7 35.3 36.8 Q36.8 39.2 37.9 41.8 Q38.4 43.1 37.1 42.9 Q34.8 41.7 32.2 39.8 Q29.1 37.4 26.7 35.1 Q24.8 33.2 22.9 33.8 Q20.1 35.3 17.2 37.1 Q14.8 39.2 12.1 40.9 Q10.7 41.8 11.2 40.2 Q12.8 37.9 14.1 35.1 Q15.9 32.7 16.8 29.8 Q17.3 27.9 15.8 26.4 Q13.2 24.7 10.9 22.3 Q8.1 19.8 6.2 17.9 Q5.1 16.8 6.8 17.2 Q9.7 17.9 12.8 18.1 Q16.1 17.8 18.9 17.2 Q20.8 16.9 21.2 15.1 Q22.3 12.8 23.8 9.7 Q24.9 7.1 25.2 4.8 Z" 
        stroke="#d2202e" 
        stroke-width="2.3" 
        fill="rgba(210, 32, 46, 0.08)" 
        stroke-linecap="round"/>
</svg>