<?xml version="1.0" encoding="UTF-8"?>
<!-- Generated by Pixelmator Pro 3.3.8 -->
<svg width="26" height="25" viewBox="0 0 104 100" xmlns="http://www.w3.org/2000/svg">
    <g id="Layer2">
        <g id="Layer1-2">
            <path id="Path" fill="#000000" stroke="none" d="M 58.500294 -0.039818 L 59.311657 -0.039818 C 65.354683 0.421539 68.385567 3.75293 68.385567 9.992981 C 67.095825 20.443787 66.442749 28.259949 66.442749 33.483604 L 66.442749 31.265808 L 64.981819 31.265808 C 66.278598 31.265808 73.786845 27.518735 87.506561 20.02459 C 91.072105 18.891106 94.521576 18.33606 97.878418 18.33606 C 101.98214 23.097191 104.037521 26.33606 104.037521 28.022247 C 104.037521 32.784154 98.581917 37.886028 87.670708 43.327869 C 78.916105 48.66901 74.432498 51.566747 74.219887 52.02108 L 74.219887 55.25761 C 74.219887 54.912568 81.458069 60.693209 95.934433 72.599533 L 96.906425 78.063232 L 96.906425 81.624115 C 94.083066 86.386022 90.355715 88.766975 85.724373 88.766975 C 83.457558 88.766975 76.274094 84.235362 64.173981 75.172134 C 63.294613 74.703751 62.274544 74.478928 61.093845 74.478928 L 60.444286 74.478928 C 60.536911 74.478928 59.636436 81.183846 57.690102 94.54567 L 49.26458 100.002342 C 42.342969 97.620608 38.886073 93.589773 38.89389 87.909836 C 38.659389 79.423889 39.379299 75.172134 40.998512 75.172134 C 37.202764 75.172134 28.020201 78.802109 13.450823 86.062057 L 9.238061 86.062057 C 4.704427 86.062057 1.625073 83.503512 0 78.386421 C 0 72.050743 9.184517 64.907885 27.553551 56.957848 C 31.657272 54.230679 34.081982 52.543327 34.847622 51.848946 C 34.194932 50.272051 27.386274 44.774394 14.421646 35.355972 C 10.855708 31.608902 9.07313 28.256833 9.073912 25.299767 L 9.073912 22.091331 C 11.782368 17.329425 15.401849 14.948471 19.932356 14.948471 C 23.612416 15.729116 30.796663 20.373927 41.485096 28.882904 L 44.885323 29.898125 C 45.856926 29.898125 46.667117 24.511709 47.315895 13.738876 C 49.470151 4.559326 53.198284 -0.033572 58.500294 -0.039818 Z"/>
        </g>
    </g>
</svg>
