<?xml version="1.0" encoding="UTF-8"?>
<!-- Generated by Pixelmator Pro 3.5.6 -->
<svg width="300" height="300" viewBox="0 0 300 300" xmlns="http://www.w3.org/2000/svg">
    <path id="Path" fill="none" stroke="#9d5d41" stroke-width="10" stroke-opacity="0.353525" stroke-linecap="round" stroke-linejoin="round" d="M 64.669998 43.880005 C 64.839996 44.179993 92.75 24.779999 94 26.950012 C 96.139999 30.660004 37.900002 72.449997 38.220001 73.01001 C 40.130001 76.320007 119.790001 18.670013 122.93 24.100006 C 126.32 29.959991 29.67 92.300003 29.67 92.300003 C 30.809999 94.269989 145.589996 14.929993 150.110001 22.76001 C 151.550003 25.26001 16.129999 100.820007 21.76 110.580002 C 21.76 110.580002 168.580002 22.540009 169.990005 25 C 174 31.940002 17.99 125.570007 18.690001 126.779999 L 187.050003 29.559998 C 194.300003 42.119995 15.13 131.570007 20 140 C 26.09 150.539993 192.800003 34.330017 195.350006 38.76001 C 201.759995 49.860001 20.709999 148.470001 22.84 152.149994 C 22.84 152.149994 197.050003 34.269989 204.539993 47.240005 C 212.729996 61.429993 23.120001 151.070007 29.68 162.429993 C 33.16 168.460007 206.740005 39.380005 215.759995 55 C 215.759995 55 20.1 166.050003 26.84 177.710007 C 33.02 188.410004 218.300003 58.779999 221.929993 65.070007 C 224.679993 69.830002 34.150002 187.279999 34.150002 187.279999 C 39.630001 196.770004 221.039993 66.839996 226.470001 76.23999 C 226.470001 76.23999 37.32 182.960007 44.41 195.240005 C 52.77 209.710007 232.160004 86.839996 232.160004 86.839996 C 236.779999 94.839996 46.040001 188.440002 54.330002 202.800003 C 55.450001 204.729996 240.550003 95.290009 240.550003 95.290009 C 244.589996 102.290009 57.970001 206.229996 61.630001 212.570007 C 64.339996 217.259995 238.979996 97.199997 244.600006 106.929993 C 246.770004 110.679993 62.919998 213.580002 68.410004 223.080002 C 74.82 234.179993 239.619995 124.230011 239.619995 124.230011 C 242.179993 128.669998 84.790001 225.490005 85.739998 227.139999 C 85.739998 227.139999 241.699997 127.75 245.75 134.759995 C 248.690002 139.850006 98.660004 233.399994 98.720001 233.5 C 98.989998 233.960007 238.130005 153.009995 238.130005 153.009995 C 238.130005 153.009995 109.790001 227.580002 115.379997 237.259995 C 121.559998 247.970001 238.619995 161.520004 240.600006 164.960007 C 245.919998 174.169998 129.929993 242.960007 129.929993 242.960007 C 134.139999 250.240005 227.100006 179.279999 230.380005 184.960007 C 231.679993 187.220001 155.529999 240.789993 156.220001 241.970001 C 157.729996 244.580002 210.399994 210.119995 210.649994 210.550003"/>
    <g id="Group">
        <path id="path1" fill="none" stroke="#422100" stroke-width="10" stroke-linecap="round" stroke-linejoin="round" d="M 129.880005 55.429993 C 129.880005 55.429993 130.119995 55.270004 130.130005 55.290009 C 130.880005 56.600006 160.990005 49.020004 161.919998 50.639999 C 161.919998 50.660004 163.039993 49.860001 163.100006 49.959991 C 163.539993 50.720001 181.839996 52.660004 181.839996 52.660004 C 181.860001 52.699997 182.830002 52.080002 182.839996 52.080002 C 183.220001 52.729996 195.860001 57.889999 196.029999 58.179993 C 196.070007 58.25 196.970001 57.570007 197 57.619995 C 197.020004 57.649994 210.580002 63.119995 210.949997 63.770004 C 210.970001 63.800003 211.759995 63.290009 211.759995 63.300003 L 221.089996 71.290009 C 221.089996 71.290009 226.699997 67.970001 226.729996 68.029999 C 226.899994 68.320007 228.850006 79.320007 229.380005 80.23999 C 229.410004 80.290009 234.669998 77.130005 234.690002 77.169998 C 234.779999 77.330002 242.389999 86.76001 242.520004 86.980011 C 242.550003 87.029999 243.350006 86.5 243.350006 86.5 C 243.490005 86.73999 250.460007 95.959991 250.809998 96.559998 C 250.820007 96.580002 251.539993 96.059998 251.570007 96.119995 C 251.570007 96.119995 256.079987 106.380005 256.559998 107.199997 C 256.579987 107.23999 256.799988 106.98999 256.829987 107.040009 C 256.940002 107.230011 259.029999 118.639999 259.350006 119.199997 C 259.369995 119.230011 264.929993 115.980011 264.929993 115.980011 C 265.070007 116.220001 267.959991 127.610001 268.140015 127.919998 C 268.140015 127.919998 270.130005 126.699997 270.160004 126.75 C 270.299988 126.98999 269.970001 140.229996 270.279999 140.770004 C 270.299988 140.809998 272.709991 139.369995 272.709991 139.369995 C 272.920013 139.729996 274.279999 151.190002 274.809998 152.110001 L 277.779999 150.389999 C 278.209991 151.130005 271.660004 167.570007 271.769989 167.759995 C 271.799988 167.820007 272.559998 167.25 272.589996 167.289993 C 272.589996 167.289993 271.299988 180.520004 271.75 181.289993 C 271.790009 181.350006 272.470001 180.850006 272.480011 180.869995 C 273.160004 182.039993 263.959991 197.529999 264.73999 198.880005 C 264.73999 198.880005 266.790009 197.679993 266.799988 197.690002 C 266.859985 197.789993 255.690002 216.25 256.429993 217.539993 C 256.429993 217.539993 260.98999 214.889999 261 214.899994 C 261 214.899994 230.789993 242.589996 232.539993 245.619995 C 232.559998 245.660004 234.070007 244.660004 234.100006 244.720001 M 88.459999 78.25 C 88.459999 78.25 104.470001 68.339996 104.760002 68.839996 C 107.029999 72.769989 63.419998 101.669998 65.370003 105.040009 C 65.400002 105.100006 70.839996 101.850006 70.849998 101.869995 C 71.239998 102.550003 59.66 121.199997 59.91 121.619995 C 59.950001 121.699997 61.139999 120.769989 61.200001 120.869995 C 61.439999 121.279999 53.41 137.380005 54.049999 138.490005 C 54.07 138.520004 54.849998 138.029999 54.849998 138.029999 C 54.849998 138.029999 47.73 154.300003 48.27 155.229996 C 48.279999 155.25 50.23 154.059998 50.25 154.089996 L 46.5 170.199997 C 46.5 170.199997 51.32 167.350006 51.349998 167.399994 C 51.82 168.210007 48.470001 182.610001 48.470001 182.610001 C 48.48 182.639999 56.369999 178.050003 56.369999 178.050003 C 56.66 178.550003 53.130001 192.860001 53.610001 193.699997 L 54.349998 193.270004 C 54.349998 193.270004 58.150002 204.309998 58.529999 204.970001 C 58.549999 205 59.299999 204.520004 59.299999 204.520004 C 59.299999 204.520004 62.389999 216.119995 62.389999 216.130005 C 62.41 216.169998 67.75 213.039993 67.75 213.039993 C 67.75 213.039993 72.32 223.720001 72.470001 223.979996 C 72.470001 223.979996 74.650002 222.660004 74.669998 222.710007 C 75.040001 223.339996 74.519997 236.600006 74.529999 236.630005 C 74.559998 236.669998 83.599998 231.380005 83.599998 231.389999 C 83.989998 232.070007 85.029999 243.279999 85.419998 243.960007 C 85.440002 244 85.620003 243.779999 85.650002 243.830002 C 85.690002 243.910004 97.809998 249.729996 98.410004 250.779999 C 98.440002 250.839996 100.989998 249.270004 101 249.289993 C 101.370003 249.940002 104.959999 260.73999 105.029999 260.869995 C 105.029999 260.890015 105.75 260.399994 105.779999 260.440002 C 105.779999 260.440002 123.379997 262.670013 124.139999 263.98999 C 124.139999 263.98999 124.809998 263.5 124.849998 263.579987 C 124.849998 263.579987 133.240005 272.809998 133.300003 272.899994 C 133.320007 272.940002 137.990005 270.119995 138.020004 270.170013 C 138.339996 270.720001 155.380005 272.350006 155.929993 273.309998 L 160.419998 270.709991 C 160.919998 271.570007 178.899994 273.450012 178.899994 273.450012 C 178.940002 273.519989 181.179993 272.059998 181.210007 272.109985"/>
    </g>
</svg>
