<?xml version="1.0" encoding="UTF-8"?>
<!-- Generated by Pixelmator Pro 3.3.8 -->
<svg width="2031" height="2749" viewBox="0 0 2031 2749" xmlns="http://www.w3.org/2000/svg">
    <g id="Group">
        <path id="Path" fill="none" stroke="none" d="M 1027.699951 1549.800049 C 1033.699951 1558.5 1040.400024 1566.400024 1047.300049 1574.300049 C 1051.900024 1560.300049 1038 1526.900024 1027.699951 1549.800049 Z"/>
        <path id="path1" fill="none" stroke="none" d="M 1028.900024 1631.700073 C 1039.300049 1628.300049 1053.699951 1628.800049 1057 1618.200073 C 1046.699951 1618.700073 1036.300049 1625 1028.900024 1618.200073 C 1028.900024 1622.800049 1028.900024 1627.200073 1028.900024 1631.700073 Z"/>
        <path id="path2" fill="none" stroke="none" d="M 1038.699951 1602.400024 C 1034 1603.800049 1027.699951 1610.099976 1030.099976 1614.599976 C 1033.199951 1610.700073 1039.400024 1610 1038.699951 1602.400024 Z"/>
        <path id="path3" fill="none" stroke="none" d="M 898.799988 492.899902 C 899.099976 486.5 899.299988 480.199951 893.900024 479.399902 C 892.099976 483.300049 888.700012 485.600098 889 491.600098 C 893.5 490.800049 894.200012 493.800049 898.799988 492.899902 Z"/>
        <path id="path4" fill="none" stroke="none" d="M 1084.900024 2231.299805 C 1082.300049 2218.899902 1070.900024 2207.799805 1059.199951 2217.899902 C 1064 2231 1073.800049 2239 1084.900024 2231.299805 Z"/>
        <path id="path5" fill="none" stroke="none" d="M 1017.400024 519.800049 C 1019.299988 516.399902 1023.200012 515 1022.299988 508.800049 C 1018.400024 507.800049 1016.099976 505.199951 1011.299988 505.100098 C 1013.700012 509.600098 1013.599976 516.699951 1017.400024 519.800049 Z"/>
        <path id="path6" fill="none" stroke="none" d="M 1022.299988 549.199951 C 1029.199951 533.300049 993.299988 527.399902 995.400024 546.800049 C 1004.200012 551.699951 1013.900024 551.899902 1022.299988 549.199951 Z"/>
        <path id="path7" fill="none" stroke="none" d="M 578.400024 952.699951 C 578.400024 955.599976 576.299988 956.300049 577.200012 960 C 581.5 960.699951 583.5 959 584.5 956.300049 C 581.599976 956 582.200012 952.199951 578.400024 952.699951 Z"/>
        <path id="path8" fill="none" stroke="none" d="M 540.400024 802.300049 C 527.400024 797.900024 509.799988 807.699951 512.299988 826.800049 C 522.700012 826.800049 539.299988 831.599976 544.099976 823.099976 C 542.700012 818 539.299988 814.800049 538 809.599976 C 537.400024 805.800049 541.799988 806.900024 540.400024 802.300049 Z"/>
        <path id="path9" fill="none" stroke="none" d="M 540.400024 777.900024 C 535.5 779.900024 529.599976 781 529.400024 787.699951 C 535.900024 787.199951 537.200012 781.599976 540.400024 777.900024 Z"/>
        <path id="path10" fill="none" stroke="none" d="M 453.600006 946.599976 C 453.100006 952 456.700012 953.300049 462.200012 952.699951 C 461.899994 948.099976 459 946.199951 453.600006 946.599976 Z"/>
        <path id="path11" fill="none" stroke="none" d="M 463.399994 943 C 473.100006 941.099976 467.299988 954.599976 470.700012 958.900024 C 478 957.5 472 943.699951 471.899994 938.099976 C 467.200012 937.800049 464.299988 939.400024 463.399994 943 Z"/>
        <path id="path12" fill="none" stroke="none" d="M 583.200012 759.5 C 587.799988 760 590.400024 758.5 590.5 754.599976 C 586 754.099976 585 757.199951 583.200012 759.5 Z"/>
        <path id="path13" fill="none" stroke="none" d="M 650.5 911.199951 C 648.5 915.699951 652.599976 923.400024 659.099976 923.400024 C 661.400024 918.5 656.5 911.699951 650.5 911.199951 Z"/>
        <path id="path14" fill="none" stroke="none" d="M 1074.900024 123.600098 C 1089.300049 124.600098 1100.5 122.300049 1104.300049 112.600098 C 1100.5 110.300049 1101.199951 103.399902 1098.199951 100.399902 C 1085.099976 99.899902 1079.199951 106.699951 1071.300049 111.399902 C 1072.099976 115.800049 1076.599976 116.600098 1074.900024 123.600098 Z"/>
        <path id="path15" fill="none" stroke="none" d="M 789.900024 550.399902 C 788.599976 553.800049 784.099976 558.399902 787.5 562.600098 C 794.099976 562.100098 797.900024 552.199951 789.900024 550.399902 Z"/>
        <path id="path16" fill="none" stroke="none" d="M 794.099976 883.300049 C 793.799988 884.300049 793.099976 884.699951 791.700012 884.5 C 791.700012 886.5 791.700012 888.599976 791.700012 890.599976 C 792.900024 890.599976 794.099976 890.599976 795.400024 890.599976 C 795.900024 887.900024 798.200012 884 794.099976 883.300049 Z"/>
        <path id="path17" fill="none" stroke="none" d="M 770.400024 651.899902 C 772.299988 661.899902 774.799988 671.100098 781.400024 676.399902 C 781.5 669.199951 785 665.300049 783.799988 656.800049 C 778.200012 656.300049 773.599976 654.699951 770.400024 651.899902 Z"/>
        <path id="path18" fill="none" stroke="none" d="M 655 1724.400024 C 656.299988 1729.599976 650.400024 1733.5 648.099976 1738.099976 C 672.299988 1750.300049 659.5 1707.700073 647.900024 1695 C 635.400024 1697.099976 629.400024 1708 630.700012 1717.400024 C 638.900024 1719.599976 647.799988 1717.200073 655 1724.400024 Z"/>
        <path id="path19" fill="none" stroke="none" d="M 931.099976 738.900024 C 914.5 722.199951 893 719.900024 867.299988 732 C 847.099976 741.5 827.799988 758.099976 812.299988 771.5 C 808.400024 774.900024 804.599976 778.099976 801.299988 780.800049 C 798.700012 782.900024 797.700012 786.400024 798.799988 789.5 C 809.299988 821.199951 827.900024 828 842 828 C 842.299988 828 842.599976 828 842.900024 828 C 866.099976 827.5 888.099976 809 899.299988 798.099976 C 915.799988 781.800049 928.700012 762.099976 933.099976 746.699951 C 933.900024 743.900024 933.099976 740.900024 931.099976 738.900024 Z"/>
        <path id="path20" fill="none" stroke="none" d="M 779.5 929.800049 C 779.5 928.199951 779.5 926.5 779.5 924.900024 C 777.5 924.900024 775.400024 924.900024 773.400024 924.900024 C 773.799988 928.099976 776.599976 929 779.5 929.800049 Z"/>
        <path id="path21" fill="none" stroke="none" d="M 874.900024 1903.599976 C 876.599976 1907.700073 871 1910.5 872.099976 1914.5 C 876.5 1912.800049 876.299988 1905.700073 883.799988 1907.800049 C 879.700012 1904.400024 878 1902.400024 881.900024 1898.700073 C 877.799988 1894.400024 879 1891.099976 875.200012 1887 C 871.5 1889.599976 867.799988 1892.099976 864.200012 1894.700073 C 867.5 1899.5 871.700012 1898.599976 874.900024 1903.599976 Z"/>
        <path id="path22" fill="none" stroke="none" d="M 887.799988 511.300049 C 890.599976 508.199951 887.400024 503.600098 885.400024 501.5 C 885.200012 505.699951 884.900024 510 887.799988 511.300049 Z"/>
        <path id="path23" fill="none" stroke="none" d="M 821.700012 577.300049 C 826.799988 573.399902 829.700012 567.399902 830.299988 559 C 826.599976 555.300049 816.700012 557.899902 815.599976 551.699951 C 818 547.600098 825.900024 549 825.400024 541.899902 C 821 537 809.5 539.899902 805.799988 543.100098 C 807.400024 553.300049 802.799988 557.199951 800.900024 563.899902 C 807.400024 568.800049 812.900024 574.699951 821.700012 577.300049 Z"/>
        <path id="path24" fill="none" stroke="none" d="M 857.200012 642.100098 C 851.700012 641.899902 848.400024 639.5 843.700012 638.399902 C 843.299988 641.300049 839.5 640.699951 840 644.5 C 846.200012 645.399902 854 647 857.200012 642.100098 Z"/>
        <path id="path25" fill="none" stroke="none" d="M 783.799988 544.300049 C 781.099976 542.899902 779.700012 540.199951 776.5 539.399902 C 775.700012 544.199951 782.099976 549.5 783.799988 544.300049 Z"/>
        <path id="path26" fill="none" stroke="none" d="M 763 702.099976 C 759.099976 707.599976 757 712.599976 749.5 711.900024 C 755.599976 721 769.200012 708.800049 774 704.599976 C 771 703 766.799988 702.699951 763 702.099976 Z"/>
        <path id="path27" fill="none" stroke="none" d="M 725.099976 425.699951 C 720.5 425.600098 718.5 428.100098 717.799988 431.800049 C 719.900024 435 722.200012 438 727.599976 437.899902 C 728.299988 432.300049 724.799988 430.899902 725.099976 425.699951 Z"/>
        <path id="path28" fill="none" stroke="none" d="M 762.299988 906.5 C 766.200012 907.099976 766.599976 904.300049 770.900024 905.300049 C 768.5 899.5 766.200012 893.699951 762.299988 889.400024 C 761.599976 894 759.700012 902.300049 762.299988 906.5 Z"/>
        <path id="path29" fill="none" stroke="none" d="M 1292.300049 2040.900024 C 1290 2043.599976 1285.800049 2048 1282 2049.600098 C 1288.699951 2047.5 1290.599976 2057.5 1292.099976 2062 C 1297.5 2059.200195 1295.099976 2054.899902 1301.699951 2052.299805 C 1298.599976 2048.100098 1295.099976 2046.400024 1292.300049 2040.900024 Z"/>
        <path id="path30" fill="none" stroke="none" d="M 1387.300049 593.5 C 1383.400024 592.5 1383.5 595.399902 1381.199951 595.899902 C 1382.5 601.199951 1384 606.100098 1387.300049 609.399902 C 1385.800049 604.199951 1385.800049 598.699951 1387.300049 593.5 Z"/>
        <path id="path31" fill="none" stroke="none" d="M 1213.5 1829.099976 C 1196.599976 1838.200073 1186.599976 1809.5 1168.300049 1826.300049 C 1172.800049 1836.400024 1187 1832.5 1193.5 1847.5 C 1197 1845.800049 1195.800049 1843.200073 1199.800049 1841.599976 C 1204.800049 1841.400024 1208.900024 1846.599976 1213.800049 1846.800049 C 1213.300049 1840.800049 1210.599976 1834.400024 1213.5 1829.099976 Z"/>
        <path id="path32" fill="none" stroke="none" d="M 1483.900024 560.399902 C 1480.699951 560.399902 1476.699951 559.699951 1476.599976 562.800049 C 1479.099976 562.199951 1485 564.899902 1483.900024 560.399902 Z"/>
        <path id="path33" fill="none" stroke="none" d="M 1364 797.699951 C 1356.800049 797 1351.599976 798.300049 1351.800049 805 C 1357.900024 808 1363.800049 804.199951 1364 797.699951 Z"/>
        <path id="path34" fill="none" stroke="none" d="M 1142.900024 1826.099976 C 1145.900024 1830.700073 1150 1828.800049 1152.900024 1834 C 1155.300049 1842.900024 1145.800049 1849.700073 1154.400024 1859.800049 C 1160.699951 1848.5 1173.800049 1855.400024 1179.599976 1846.800049 C 1168.5 1833.599976 1158.599976 1813.800049 1142.900024 1826.099976 Z"/>
        <path id="path35" fill="none" stroke="none" d="M 1327.300049 823.400024 C 1330.099976 811.5 1336.800049 803.5 1348.099976 800.199951 C 1343.900024 796.300049 1349.800049 792.199951 1349.300049 788 C 1338.400024 780.199951 1323.300049 790.599976 1318.699951 800.199951 C 1326.800049 799.900024 1328.400024 806 1329.699951 812.400024 C 1321.699951 813 1316.599976 810.800049 1315 805.099976 C 1309.400024 808 1304.900024 812.099976 1301.5 817.300049 C 1307.400024 826.900024 1316.599976 830.099976 1327.300049 823.400024 Z"/>
        <path id="path36" fill="none" stroke="none" d="M 1526.699951 553.100098 C 1533 551.300049 1538.099976 548.199951 1542.599976 544.5 C 1541.400024 537.199951 1544.400024 534.100098 1545 528.600098 C 1541.300049 526.600098 1534.5 527.699951 1530.300049 526.199951 C 1529.099976 528.699951 1527.300049 530.5 1524.199951 531.100098 C 1517 528.5 1517.5 518.199951 1505.900024 520.100098 C 1502.599976 536.5 1517.900024 544.699951 1526.699951 553.100098 Z"/>
        <path id="path37" fill="none" stroke="none" d="M 441.399994 746.099976 C 437.299988 746.900024 435.399994 749.900024 431.600006 751 C 430.899994 756.199951 432.5 759.099976 432.799988 763.199951 C 436.700012 763.800049 437.100006 761 441.399994 762 C 443.700012 765 445.5 768.400024 446.299988 773 C 460.700012 764.699951 438.299988 758.5 441.399994 746.099976 Z"/>
        <path id="path38" fill="none" stroke="none" d="M 1513.900024 582.199951 C 1513 586.699951 1516.900024 589 1513.900024 592 C 1519.300049 596.399902 1526.400024 599.100098 1534.699951 600.600098 C 1535.400024 598 1537.699951 597.100098 1537.099976 593.300049 C 1526.900024 592 1521 586.5 1513.900024 582.199951 Z"/>
        <path id="path39" fill="none" stroke="none" d="M 1680.5 1479 C 1677.099976 1488.400024 1670.300049 1497.099976 1668.5 1506.700073 C 1693.400024 1536.400024 1706 1485 1680.5 1479 Z"/>
        <path id="path40" fill="none" stroke="none" d="M 657.299988 2257.699951 C 658.099976 2253.199951 656.5 2251.199951 654.900024 2249.099854 C 649.700012 2249.199951 647.599976 2252.399902 646.299988 2256.399902 C 651.900024 2259.399902 653.400024 2266.399902 657.299988 2271.099854 C 663.799988 2271 671.900024 2272.599854 670.799988 2265 C 667.599976 2261.299805 661.799988 2260.199951 657.299988 2257.699951 Z"/>
        <path id="path41" fill="none" stroke="none" d="M 1536.099976 1870.400024 C 1537.300049 1875.300049 1536 1878.200073 1531.099976 1878.599976 C 1531.099976 1873.200073 1527.900024 1872.200073 1525 1870.900024 C 1521.800049 1875.700073 1525.099976 1885.300049 1525.800049 1893 C 1541.400024 1898.700073 1546 1877.5 1536.099976 1870.400024 Z"/>
        <path id="path42" fill="none" stroke="none" d="M 1635.900024 1796 C 1639.800049 1791.400024 1637.400024 1785.599976 1645.5 1786.300049 C 1648.400024 1776.599976 1631.900024 1763.400024 1646.599976 1755.700073 C 1641.400024 1748.599976 1634.400024 1751.700073 1628.5 1748.900024 C 1628.400024 1752.700073 1631 1757 1629.099976 1760.400024 C 1614.199951 1772.200073 1620.099976 1787.099976 1635.900024 1796 Z"/>
        <path id="path43" fill="none" stroke="none" d="M 1356.699951 783 C 1357 780.199951 1356.400024 778.400024 1354.300049 778.099976 C 1353.099976 779.699951 1353.099976 782.599976 1351.900024 784.199951 C 1354.099976 784.5 1354.5 782.900024 1356.699951 783 Z"/>
        <path id="path44" fill="none" stroke="none" d="M 1272.300049 778.099976 C 1268.599976 776.900024 1268.5 772.199951 1263.699951 772 C 1262.800049 777.099976 1270.900024 779.5 1272.300049 778.099976 Z"/>
        <path id="path45" fill="none" stroke="none" d="M 1243.599976 1351.400024 C 1245 1356.099976 1251.300049 1362.400024 1255.800049 1360 C 1252 1356.900024 1251.199951 1350.700073 1243.599976 1351.400024 Z"/>
        <path id="path46" fill="none" stroke="none" d="M 1277.199951 845.400024 C 1276.199951 828.5 1290.800049 820.599976 1287 805 C 1275.699951 810.900024 1264 833.099976 1277.199951 845.400024 Z"/>
        <path id="path47" fill="none" stroke="none" d="M 1286.400024 1653 C 1291.199951 1667.900024 1299.900024 1682.099976 1310.699951 1692.900024 C 1322.5 1704.700073 1336 1711.599976 1349.5 1713 C 1349.800049 1713 1350 1713 1350.300049 1713 C 1352.400024 1713 1354.400024 1712.200073 1355.900024 1710.700073 C 1367.199951 1699.400024 1372.099976 1684.099976 1369.900024 1666.300049 C 1365.800049 1631.800049 1336.599976 1594.200073 1311.900024 1579.200073 C 1308.900024 1577.400024 1305.099976 1577.700073 1302.5 1580 C 1283.099976 1596.900024 1277.099976 1624.200073 1286.400024 1653 Z"/>
        <path id="path48" fill="none" stroke="none" d="M 1273 1850.300049 C 1262.599976 1844.599976 1251.699951 1841.900024 1240.599976 1840.099976 C 1228.199951 1847.400024 1220 1867.900024 1223.699951 1875.700073 C 1226.900024 1882.5 1240.900024 1882.5 1237.599976 1891.400024 C 1232.099976 1895.599976 1228.5 1890.099976 1223.699951 1890.700073 C 1222.300049 1894.300049 1228.599976 1899.200073 1226 1902.5 C 1214 1906.800049 1206.900024 1918 1216 1928.800049 C 1228.199951 1924.200073 1241.300049 1915 1253 1913.5 C 1256.5 1908 1259.300049 1902.300049 1263.900024 1897 C 1269.800049 1895 1274.099976 1902.400024 1279.900024 1900.800049 C 1272.5 1895.900024 1275.400024 1887 1281.599976 1881.800049 C 1268.800049 1871.400024 1270.300049 1860.300049 1273 1850.300049 Z"/>
        <path id="path49" fill="none" stroke="none" d="M 1249.099976 781.800049 C 1248.900024 775.5 1246.599976 771.300049 1241.800049 769.599976 C 1240 775.599976 1239.400024 775.300049 1239.400024 783.099976 C 1242.800049 782.900024 1247.300049 783.699951 1249.099976 781.800049 Z"/>
        <path id="path50" fill="none" stroke="none" d="M 1246.599976 791.599976 C 1247.199951 794.400024 1240 788.800049 1239.300049 792.800049 C 1240.900024 794 1250.900024 795.300049 1246.599976 791.599976 Z"/>
        <path id="path51" fill="none" stroke="none" d="M 1127.599976 1720.5 C 1131.800049 1718 1127.699951 1714.099976 1131.800049 1711.599976 C 1143.199951 1719.099976 1134.599976 1732.400024 1140.099976 1738.599976 C 1145.5 1735.900024 1140.699951 1731.300049 1146.699951 1731 C 1149.599976 1734.5 1153 1734.800049 1156 1737.900024 C 1159.400024 1733.300049 1160.300049 1728.200073 1162.300049 1723.300049 C 1164.5 1726.800049 1167.199951 1730.200073 1170.400024 1733.300049 C 1175.300049 1738 1181.199951 1742 1188.099976 1745.400024 C 1175.800049 1750.800049 1165.5 1762.599976 1168.900024 1773.700073 C 1175.199951 1771 1179.699951 1778.5 1185.900024 1776.800049 C 1195.400024 1768.300049 1189 1756.800049 1191.5 1747 C 1200.099976 1750.800049 1210 1753.599976 1221.400024 1755.5 C 1221.800049 1755.599976 1222.300049 1755.599976 1222.699951 1755.599976 C 1224.400024 1755.599976 1226 1755.099976 1227.400024 1754.099976 C 1229.099976 1752.900024 1230.300049 1751 1230.599976 1748.900024 C 1231.199951 1745.300049 1233.199951 1743.200073 1236.900024 1739.700073 C 1240.699951 1736.099976 1245.400024 1731.599976 1247.400024 1724.200073 C 1247.699951 1723 1247.800049 1721.800049 1247.5 1720.5 C 1235.199951 1659.099976 1206 1654.700073 1194 1655.599976 C 1173.800049 1657.099976 1156.599976 1676.300049 1155.599976 1698.300049 C 1155.400024 1702.300049 1155.800049 1706.200073 1156.699951 1710 C 1152.699951 1710.700073 1148.599976 1711.900024 1145 1711.5 C 1136.300049 1710.599976 1132.599976 1703.700073 1123.800049 1702.400024 C 1125.400024 1709.700073 1116.800049 1715.200073 1116.699951 1722.200073 C 1120.5 1721.099976 1123.199951 1725.099976 1127.599976 1720.5 Z"/>
        <path id="path52" fill="none" stroke="none" d="M 559.299988 1743.300049 C 563 1747.200073 559.5 1749.800049 561.900024 1753.400024 C 569.599976 1749 579.700012 1754.099976 582.099976 1763.200073 C 588.299988 1758.200073 592.299988 1765.200073 598 1762.5 C 598.599976 1754.400024 587.200012 1745.400024 581.900024 1739.400024 C 578.200012 1742 574.5 1744.5 570.900024 1747.099976 C 566.900024 1747 563.799988 1741.400024 559.299988 1743.300049 Z"/>
        <path id="path53" fill="none" stroke="none" d="M 1344.699951 1998.5 C 1346.800049 2001.800049 1343.099976 2004.099976 1344.900024 2007.300049 C 1348.900024 2006.5 1347.599976 2005 1351.900024 2002.400024 C 1350 1998.5 1347.5 1997.900024 1344.699951 1998.5 Z"/>
        <path id="path54" fill="none" stroke="none" d="M 1302.099976 2055 C 1303.800049 2057.899902 1296.699951 2059.299805 1299.900024 2062.5 C 1301.900024 2061.100098 1303.900024 2059.700195 1305.900024 2058.299805 C 1304.699951 2056.899902 1303.699951 2054.399902 1302.099976 2055 Z"/>
        <path id="path55" fill="none" stroke="none" d="M 1231.099976 1794.5 C 1231 1794.700073 1230.800049 1794.900024 1230.699951 1795.200073 C 1230.900024 1795 1231 1794.800049 1231.099976 1794.5 Z"/>
        <path id="path56" fill="none" stroke="none" d="M 1339.800049 1991.5 C 1342.400024 1986.400024 1344.900024 1981.300049 1347 1976.099976 C 1339.699951 1977.099976 1333.199951 1985.099976 1339.800049 1991.5 Z"/>
        <path id="path57" fill="none" stroke="none" d="M 1290.5 2036.200073 C 1299.5 2041.700073 1309.699951 2040 1319.400024 2041.400024 C 1324.400024 2020.800049 1290.300049 2014.200073 1290.5 2036.200073 Z"/>
        <path id="path58" fill="none" stroke="none" d="M 1252.599976 1973.200073 C 1261.199951 1966.800049 1259.699951 1958.700073 1261 1951 C 1254.300049 1950.900024 1247.5 1951.200073 1240.699951 1951.700073 C 1235.099976 1959.099976 1245.699951 1970.200073 1252.599976 1973.200073 Z"/>
        <path id="path59" fill="none" stroke="none" d="M 1696.699951 617.899902 C 1696.199951 615 1698.900024 615.199951 1697.900024 611.800049 C 1696.900024 611.5 1696.5 610.800049 1696.699951 609.399902 C 1693.599976 609.199951 1692.900024 611.300049 1691.800049 613.100098 C 1694.599976 613.399902 1692.5 618.800049 1696.699951 617.899902 Z"/>
        <path id="path60" fill="none" stroke="none" d="M 1563.400024 871.099976 C 1563.400024 881.5 1558.599976 898.099976 1567.099976 902.900024 C 1572.199951 901.5 1575.400024 898.099976 1580.599976 896.800049 C 1584.5 896.199951 1583.400024 900.599976 1587.900024 899.199951 C 1592.199951 886.199951 1582.400024 868.599976 1563.400024 871.099976 Z"/>
        <path id="path61" fill="none" stroke="none" d="M 1518.099976 964 C 1516.199951 965.800049 1516.900024 970.400024 1520.5 970.099976 C 1520.699951 967.099976 1520.800049 964.199951 1518.099976 964 Z"/>
        <path id="path62" fill="none" stroke="none" d="M 1012.5 561.399902 C 1006.599976 565.100098 1003.299988 562.5 996.599976 561.399902 C 997.099976 566.600098 1002.799988 566.600098 1002.700012 572.399902 C 997.900024 573.100098 995.099976 568.199951 991.700012 571.199951 C 990.900024 586.199951 1003.200012 597.899902 1016.200012 588.300049 C 1014.599976 579.699951 1015.099976 569 1012.5 561.399902 Z"/>
        <path id="path63" fill="none" stroke="none" d="M 1630.599976 942 C 1630.099976 946.599976 1631.599976 949.199951 1635.5 949.300049 C 1636 944.699951 1632.900024 943.800049 1630.599976 942 Z"/>
        <path id="path64" fill="none" stroke="none" d="M 1602.5 888.199951 C 1603 894.599976 1608.599976 896 1612.300049 899.199951 C 1610.199951 894.300049 1609.199951 888.400024 1602.5 888.199951 Z"/>
        <path id="path65" fill="none" stroke="none" d="M 595.400024 1946.599976 C 587.400024 1958.300049 596.700012 1976.5 609.799988 1976.599976 C 614 1972.200073 615.400024 1965.700073 621.299988 1962.5 C 619.200012 1956.900024 612.299988 1953.900024 615.099976 1946.099976 C 609.200012 1945.400024 603.400024 1944.5 595.400024 1946.599976 Z"/>
        <path id="path66" fill="none" stroke="none" d="M 623.599976 1389.300049 C 618.5 1385.400024 616.299988 1378.599976 607.700012 1378.300049 C 608.299988 1386.300049 611.5 1391.599976 613.799988 1397.900024 C 618.700012 1396.700073 620.700012 1392.5 623.599976 1389.300049 Z"/>
        <path id="path67" fill="none" stroke="none" d="M 1067.5 2280.199951 C 1067.699951 2276.299805 1065.099976 2271.5 1065.300049 2267.599854 C 1058.699951 2268.299805 1051.599976 2270.299805 1045.599976 2269.199951 C 1046.199951 2275.599854 1035.400024 2289.299805 1048.300049 2291.099854 C 1049.900024 2287.399902 1047.400024 2282.299805 1052.099976 2279.599854 C 1058.199951 2277.299805 1061.300049 2283.299805 1067.5 2280.199951 Z"/>
        <path id="path68" fill="none" stroke="none" d="M 1056.800049 2246.699951 C 1059.599976 2250.099854 1063.199951 2251.299805 1067 2251.799805 C 1064.599976 2248 1063.099976 2241.599854 1059.900024 2240.299805 C 1059.300049 2240.599854 1058.699951 2240.899902 1058.099976 2241.199951 C 1055.099976 2229.200195 1044.900024 2215.899902 1055 2206.200195 C 1055.5 2209 1053.699951 2211.799805 1057.199951 2212.899902 C 1060.599976 2211.700195 1063.199951 2210.200195 1064.900024 2208.399902 C 1065.199951 2208.899902 1065.599976 2209.5 1065.800049 2210.200195 C 1066.400024 2208.600098 1066.800049 2207 1067 2205.5 C 1068.900024 2202.100098 1068.900024 2198.100098 1068.099976 2193.700195 C 1067 2194.299805 1065.900024 2194.799805 1064.900024 2195.200195 C 1060.099976 2186.299805 1048.900024 2178.799805 1040.900024 2169.600098 C 1040 2166.899902 1039.300049 2164.299805 1038.599976 2162 C 1038 2162.600098 1037.300049 2163.100098 1036.5 2163.700195 C 1036.5 2163.700195 1036.5 2163.600098 1036.400024 2163.600098 C 1032.400024 2164.899902 1029.599976 2166.600098 1027.900024 2168.700195 C 1024.699951 2170.299805 1021.400024 2171.899902 1018.299988 2173.5 C 1018.599976 2179.399902 1012.700012 2183.200195 1013.900024 2189.399902 C 1014.599976 2190.899902 1015.400024 2192.299805 1016.099976 2193.799805 C 1025.300049 2186.899902 1016.599976 2177.799805 1025.900024 2172.5 C 1025.900024 2172.5 1025.900024 2172.5 1026 2172.5 C 1023.900024 2180 1029.900024 2190.100098 1035.099976 2199.399902 C 1033.599976 2201.600098 1032 2203.700195 1030.5 2205.700195 C 1029.900024 2204.299805 1029.300049 2203 1028.699951 2201.899902 C 1025.900024 2201.399902 1022.200012 2205.200195 1019 2207.200195 C 1017.200012 2218.600098 1022.299988 2231.200195 1029.900024 2244.299805 C 1040.599976 2235.200195 1046.300049 2254.199951 1056.800049 2246.699951 Z"/>
        <path id="path69" fill="none" stroke="none" d="M 1070.199951 2455.199951 C 1067.300049 2446.599854 1077.900024 2442.599854 1076.199951 2434.399902 C 1071.099976 2428.899902 1063.099976 2431.699951 1055.400024 2433.799805 C 1052.800049 2445.199951 1061 2452.899902 1070.199951 2455.199951 Z"/>
        <path id="path70" fill="none" stroke="none" d="M 646.799988 1455.400024 C 650.900024 1447.300049 654.200012 1438.300049 652.900024 1424.800049 C 649.299988 1422.700073 643.5 1427.200073 637 1426 C 636.700012 1434.700073 629 1435.900024 629.700012 1445.599976 C 633.299988 1450.900024 639.5 1453.800049 646.799988 1455.400024 Z"/>
        <path id="path71" fill="none" stroke="none" d="M 1627 791.599976 C 1626.400024 795.5 1629.199951 795.900024 1628.199951 800.199951 C 1625.199951 802.5 1621.800049 804.300049 1617.199951 805.099976 C 1625.5 819.5 1631.599976 797.099976 1644.099976 800.199951 C 1643.300049 796.099976 1640.300049 794.199951 1639.199951 790.400024 C 1634 789.599976 1631.099976 791.199951 1627 791.599976 Z"/>
        <path id="path72" fill="none" stroke="none" d="M 1518.099976 933.400024 C 1519.800049 935.800049 1528.5 934.900024 1530.300049 933.400024 C 1532.099976 928.300049 1516.199951 927.300049 1518.099976 933.400024 Z"/>
        <path id="path73" fill="none" stroke="none" d="M 1811.400024 1911.200073 C 1811.800049 1915.599976 1819.199951 1913 1819.099976 1910.099976 C 1816.5 1910.700073 1814.599976 1909 1811.400024 1911.200073 Z"/>
        <path id="path74" fill="none" stroke="none" d="M 1848.300049 1472.700073 C 1835.300049 1470.599976 1822 1468.800049 1811.599976 1464.099976 C 1819.199951 1474.599976 1795.099976 1478.200073 1803.400024 1490.900024 C 1799 1490.400024 1794.400024 1491.300049 1789.099976 1495.700073 C 1798.099976 1510.200073 1814.599976 1505.700073 1825.400024 1494.300049 C 1819.5 1495.900024 1814.400024 1493.700073 1809.099976 1492.099976 C 1828.199951 1491.900024 1843.400024 1487.400024 1848.300049 1472.700073 Z"/>
        <path id="path75" fill="none" stroke="none" d="M 1762 1753.599976 C 1754.900024 1766.5 1764.800049 1779.300049 1775.5 1778.099976 C 1787 1776.800049 1785.199951 1766.099976 1782.800049 1757.300049 C 1775.400024 1756.5 1768.900024 1754.900024 1762 1753.599976 Z"/>
        <path id="path76" fill="none" stroke="none" d="M 1713.800049 1140.099976 C 1721 1140.200073 1724.900024 1143.700073 1733.400024 1142.5 C 1733.900024 1136.900024 1735.5 1132.300049 1738.300049 1129 C 1728.300049 1131 1719 1133.5 1713.800049 1140.099976 Z"/>
        <path id="path77" fill="none" stroke="none" d="M 1755.599976 2040.300049 C 1756.699951 2043.700073 1753.400024 2045.700073 1756.099976 2049.600098 C 1760.099976 2046.400024 1766.400024 2043.900024 1762.699951 2038.099976 C 1759.699951 2040.599976 1758.5 2037.800049 1755.599976 2040.300049 Z"/>
        <path id="path78" fill="none" stroke="none" d="M 1921.699951 2635.699951 C 1921.599976 2639.899902 1925.300049 2640.299805 1927.800049 2641.799805 C 1927.300049 2638.299805 1925.199951 2636.299805 1921.699951 2635.699951 Z"/>
        <path id="path79" fill="none" stroke="none" d="M 1315.099976 2283.5 C 1315.599976 2290 1320.400024 2295.699951 1327.300049 2292.099854 C 1326.199951 2286.299805 1318.800049 2286.699951 1315.099976 2283.5 Z"/>
        <path id="path80" fill="none" stroke="none" d="M 1727.699951 2050.600098 L 1718 2036.400024 C 1718.800049 2041.5 1721.699951 2046.300049 1727.699951 2050.600098 Z"/>
        <path id="path81" fill="none" stroke="none" d="M 1745.599976 1198.800049 C 1744.699951 1205 1743.199951 1212.700073 1748 1215.900024 C 1748.199951 1210.400024 1750.599976 1207.099976 1751.699951 1202.400024 C 1748.800049 1202.099976 1749.400024 1198.200073 1745.599976 1198.800049 Z"/>
        <path id="path82" fill="none" stroke="none" d="M 1530.300049 2129.5 C 1533 2132.700195 1538.400024 2128.600098 1540.099976 2130.700195 C 1539.699951 2133.600098 1534.199951 2137.700195 1537.699951 2140.5 C 1539.900024 2136.600098 1545.800049 2136.299805 1548.699951 2133.200195 C 1549.599976 2122.899902 1530.599976 2114 1530.300049 2129.5 Z"/>
        <path id="path83" fill="none" stroke="none" d="M 1566.800049 2200.899902 C 1565.699951 2206.200195 1561.099976 2208.799805 1564.300049 2217.299805 C 1576.300049 2216.700195 1578.300049 2202.100098 1566.800049 2200.899902 Z"/>
        <path id="path84" fill="none" stroke="none" d="M 1661.5 1991.599976 C 1668.300049 2005.099976 1662.900024 2014.599976 1662 2025.5 C 1671.5 2023.400024 1667.099976 2009.099976 1677.300049 2004.200073 C 1676.900024 2000.400024 1674.5 1996 1675.699951 1992.700073 C 1676.699951 1994.200073 1677.300049 1996.900024 1679 1996.5 C 1678.300049 1989.700073 1667.599976 1991.300049 1661.5 1991.599976 Z"/>
        <path id="path85" fill="none" stroke="none" d="M 565.599976 1840.200073 C 559.599976 1849.200073 549.5 1852.800049 539.200012 1860.099976 C 547 1868.700073 557.799988 1861 566.099976 1866.700073 C 565.599976 1858.200073 573.799988 1847 565.599976 1840.200073 Z"/>
        <path id="path86" fill="none" stroke="none" d="M 577.299988 2019.700073 C 579.400024 2032.800049 593.099976 2043.099976 603.200012 2041.900024 C 609.5 2031.900024 602.799988 2019.599976 602.200012 2008.300049 C 599.200012 2020.700073 587.799988 2017.300049 577.299988 2019.700073 Z"/>
        <path id="path87" fill="none" stroke="none" d="M 612.099976 2134.200195 C 613.400024 2145.700195 624.099976 2143.899902 632.900024 2141.5 C 633.700012 2134.100098 635.299988 2127.600098 636.599976 2120.700195 C 623.700012 2113.600098 610.900024 2123.600098 612.099976 2134.200195 Z"/>
        <path id="path88" fill="none" stroke="none" d="M 562.900024 1806.300049 C 565.700012 1804 568.900024 1807.599976 569.599976 1803.099976 C 568.5 1799.700073 566.400024 1801.5 565.099976 1798.800049 C 548.400024 1807.5 543.400024 1828.400024 560.400024 1834.900024 C 567.900024 1829.5 569.900024 1823.099976 575 1817.300049 C 571.5 1812.200073 563.599976 1811.300049 562.900024 1806.300049 Z"/>
        <path id="path89" fill="none" stroke="none" d="M 524.299988 2025.800049 C 524.799988 2020.200073 523.900024 2014.800049 518.400024 2010.099976 C 500.600006 2011.5 490 2037.700073 495.200012 2050.799805 C 497 2050.200195 499 2050.200195 500.899994 2050.700195 C 502.5 2056.600098 503.600006 2062.399902 503.600006 2068 C 505.899994 2068.100098 508.600006 2066.399902 510.700012 2067.5 C 512 2070.100098 508.5 2071.799805 511.200012 2074.600098 C 516 2070.700195 519.799988 2072.100098 524 2071.600098 C 524.5 2065.200195 532.200012 2058 539.700012 2057.700195 C 536 2047.599976 529.5 2042 522 2040.099976 C 522.200012 2037.800049 522.599976 2035.5 523.099976 2033.099976 C 535.5 2031.200073 549.900024 2028.700073 558.5 2029.800049 C 558.400024 2023.599976 555.200012 2021.700073 555.099976 2015.5 C 547.400024 2020.900024 535.099976 2022.800049 524.299988 2025.800049 Z"/>
        <path id="path90" fill="none" stroke="none" d="M 691.799988 1856.700073 C 675.799988 1842.900024 673.299988 1826.599976 668.5 1810.300049 C 663.5 1809.099976 652.900024 1817.400024 649.700012 1821.900024 C 671.299988 1843.099976 654.700012 1864.900024 666.900024 1887.400024 C 675.200012 1885.5 680.599976 1875.200073 689.700012 1873 C 685.5 1866.700073 690.299988 1862 691.799988 1856.700073 Z"/>
        <path id="path91" fill="none" stroke="none" d="M 643.799988 2055.399902 C 645.599976 2061.700195 655.099976 2067.200195 659.5 2075.799805 C 668.200012 2070 675.900024 2064.100098 681.200012 2057.700195 C 672.900024 2041.5 649.799988 2036.800049 643.799988 2055.399902 Z"/>
        <path id="path92" fill="none" stroke="none" d="M 629.900024 1829.700073 C 630.599976 1825.700073 634.700012 1822.400024 633.700012 1818.099976 C 626.900024 1813.700073 618.799988 1816.300049 612.200012 1810.700073 C 611.099976 1807.900024 614.599976 1805.900024 611 1802.599976 C 599.200012 1807 606.799988 1822.300049 605.799988 1831.5 C 610 1833.800049 614.599976 1826.5 617.200012 1826.5 C 626.5 1830.5 633.400024 1850.5 640.5 1853.5 C 642.700012 1846.900024 644.099976 1840.099976 637.400024 1831.800049 C 635 1830.5 631.900024 1833.200073 629.900024 1829.700073 Z"/>
        <path id="path93" fill="none" stroke="none" d="M 629.599976 1987.800049 C 618 1972.900024 603.099976 1978.900024 594.099976 1994.599976 C 598.700012 1998.5 604.5 1996.099976 603.799988 2004.200073 C 613.5 2007.099976 626.700012 1990.599976 634.400024 2005.300049 C 641.5 2000.099976 638.400024 1993.099976 641.200012 1987.200073 C 637.299988 1987.200073 633.099976 1989.800049 629.599976 1987.800049 Z"/>
        <path id="path94" fill="none" stroke="none" d="M 548.900024 1732.599976 C 553.200012 1729.599976 549.099976 1725 553.400024 1722 C 555.799988 1725 557.799988 1729.800049 560.700012 1730.300049 C 570.900024 1720.5 552.5 1713.700073 554.799988 1704.599976 C 539 1699.800049 537 1724.599976 548.900024 1732.599976 Z"/>
        <path id="path95" fill="none" stroke="none" d="M 549.200012 1760.800049 C 551.200012 1762.900024 553.400024 1763.5 555.099976 1767.099976 C 559.900024 1765 554.200012 1761.099976 554.900024 1758.300049 C 552.400024 1759.200073 549.599976 1757.700073 549.200012 1760.800049 Z"/>
        <path id="path96" fill="none" stroke="none" d="M 501 1916.400024 C 508.5 1922 517 1921.900024 525.799988 1920 C 527.5 1912.5 520.099976 1908.599976 515.200012 1900.5 C 508.5 1904 506.700012 1908.300049 500.799988 1912 C 480.899994 1902.700073 437.600006 1909.599976 431.799988 1939.099976 C 439.799988 1945.200073 452.600006 1924.099976 459.299988 1937.900024 C 458.700012 1938.700073 458.700012 1939.599976 459.700012 1940.599976 C 452.799988 1948.200073 440.200012 1954.700073 438.100006 1963.099976 C 444 1969.300049 450.299988 1973.599976 456.700012 1977 C 464.200012 1962.5 480.600006 1949.700073 471.799988 1932.300049 C 479.399994 1926 496.5 1930.599976 501 1916.400024 Z"/>
        <path id="path97" fill="none" stroke="none" d="M 1002 872.300049 C 996.700012 874.099976 990.700012 875.199951 985 876.5 C 961 869.099976 934.099976 880.099976 920.700012 898.300049 C 909.799988 913.199951 906.200012 935.800049 928.799988 954.699951 C 929.900024 955.599976 931.200012 956.199951 932.599976 956.5 C 937.599976 957.300049 942.299988 957.800049 946.700012 957.800049 C 962.5 957.800049 974.5 952.400024 983.200012 941.400024 C 992.400024 929.699951 996.099976 913.5 999.599976 897.900024 C 1000.099976 895.599976 1000.700012 893.300049 1001.200012 891 C 1002 887.699951 1000.599976 884.300049 997.700012 882.400024 C 996.400024 881.599976 995.099976 880.800049 993.799988 880.099976 C 996.599976 877.5 999.5 875 1002 872.300049 Z"/>
        <path id="path98" fill="none" stroke="none" d="M 493.100006 1755.099976 C 491.799988 1746.700073 486.200012 1731 476.299988 1726.599976 C 462.799988 1733.5 469.700012 1744.200073 476.5 1754.800049 C 482.299988 1752.900024 487.299988 1756 493.100006 1755.099976 Z"/>
        <path id="path99" fill="none" stroke="none" d="M 519.700012 1894.800049 C 514.799988 1896 511.899994 1894.700073 511.5 1889.800049 C 516.900024 1889.800049 517.900024 1886.599976 519.200012 1883.700073 C 514.400024 1880.5 504.799988 1883.800049 497.100006 1884.5 C 491.5 1900.200073 512.700012 1904.800049 519.700012 1894.800049 Z"/>
        <path id="path100" fill="none" stroke="none" d="M 585.700012 1786.800049 C 586.799988 1780 583.400024 1777.700073 583.299988 1772.099976 C 575.700012 1775.099976 573.099976 1783.099976 563.700012 1784.300049 C 564.299988 1779.599976 563.200012 1776.700073 560 1775.700073 C 553.799988 1780.099976 558.700012 1795.599976 551.400024 1798.900024 C 559.5 1802.800049 562.400024 1793.5 573.400024 1796.5 C 571.5 1787.200073 583.5 1791.900024 585.700012 1786.800049 Z"/>
        <path id="path101" fill="none" stroke="none" d="M 826.5 2102.5 C 826.700012 2108 831 2108 835.900024 2107.299805 C 834.5 2103.299805 830.900024 2102.299805 826.5 2102.5 Z"/>
        <path id="path102" fill="none" stroke="none" d="M 844 1946.599976 C 842 1948.800049 834.799988 1950.900024 828 1953.099976 C 822.200012 1951.900024 816.599976 1950.5 812.200012 1954.800049 C 805.599976 1961.099976 811.400024 1972.599976 817.5 1983.900024 C 822.400024 1984.400024 826.400024 1983.200073 829.700012 1981 C 837.299988 1980 845.200012 1976.599976 849.200012 1973.099976 C 845.599976 1965.5 851 1953 844 1946.599976 Z"/>
        <path id="path103" fill="none" stroke="none" d="M 690.799988 1960.200073 C 697.5 1971.900024 705.700012 1975.099976 713.299988 1981.800049 C 717.099976 1973.099976 717.700012 1963.800049 726.700012 1956.099976 C 723.299988 1950.700073 719 1950.200073 715.299988 1946.099976 C 716.099976 1934.900024 714.200012 1905.900024 695.900024 1907.5 C 699.799988 1914.200073 692.5 1912.599976 691 1915.400024 C 696.700012 1925.900024 694.700012 1938.900024 705.799988 1945.300049 C 699.099976 1949.900024 691 1954.300049 690.799988 1960.200073 Z"/>
        <path id="path104" fill="none" stroke="none" d="M 911.200012 2039.300049 C 901.799988 2035.900024 893.099976 2029.099976 883.5 2027.300049 C 853.799988 2052.100098 905.099976 2064.700195 911.200012 2039.300049 Z"/>
        <path id="path105" fill="none" stroke="none" d="M 877.200012 1984 C 870.5 1979.099976 862.700012 1980.099976 855.400024 1978.300049 C 856.200012 1987 865.400024 1994.400024 871.5 2001.400024 C 877.400024 1996.5 872.5 1995.800049 871.299988 1992.599976 C 872.599976 1989.599976 875.799988 1987 877.200012 1984 Z"/>
        <path id="path106" fill="none" stroke="none" d="M 895.700012 2184.100098 C 892.400024 2171.5 906.200012 2162 894.299988 2147.799805 C 879.799988 2156.799805 884.299988 2173.399902 895.700012 2184.100098 Z"/>
        <path id="path107" fill="none" stroke="none" d="M 920.700012 2469.299805 C 926.599976 2460.199951 939.5 2466.799805 948.700012 2466.399902 C 958.599976 2455.399902 950 2435.899902 945.700012 2421.099854 C 926 2428.199951 910.200012 2446.5 920.700012 2469.299805 Z"/>
        <path id="path108" fill="none" stroke="none" d="M 736.400024 2000 C 718.599976 2005 721 2026.700073 735.400024 2035 C 743.5 2025 750.400024 2011.099976 736.400024 2000 Z"/>
        <path id="path109" fill="none" stroke="none" d="M 698.5 2059.100098 C 702.200012 2052.700195 715.599976 2048.100098 719.200012 2041.700073 C 710 2031.599976 676 2043 698.5 2059.100098 Z"/>
        <path id="path110" fill="none" stroke="none" d="M 742.200012 1774.599976 C 736.299988 1776.099976 730.599976 1777.700073 726.299988 1780.700073 C 725.599976 1788.800049 734.5 1787.200073 739.799988 1789.300049 C 739.900024 1796.700073 727.799988 1792 727.599976 1799.099976 C 732.299988 1805 738.5 1808.300049 745.900024 1802.800049 C 742.099976 1794.200073 750 1780.099976 742.200012 1774.599976 Z"/>
        <path id="path111" fill="none" stroke="none" d="M 799.700012 1789.099976 C 801.200012 1758.400024 758.799988 1756.099976 769.099976 1783.599976 C 771.099976 1789 777.400024 1791.900024 777.900024 1798.400024 C 772.5 1800.599976 767.599976 1800.200073 763.599976 1794.900024 C 755.599976 1807.200073 773.5 1824.200073 762.400024 1836 C 766.200012 1839 770.799988 1838.200073 775.599976 1835.700073 C 760.099976 1812.099976 806 1818.099976 807.099976 1797.400024 C 804.900024 1792.700073 801.900024 1793.300049 799.700012 1789.099976 Z"/>
        <path id="path112" fill="#000000" stroke="none" d="M 1031.900024 2589.199951 L 1018.200012 2589.199951 C 1024.400024 2588.5 1026.900024 2584.699951 1028.400024 2580.299805 C 1008 2580.399902 988.099976 2579.699951 971.299988 2575.699951 C 979.400024 2593.399902 998.400024 2605.099854 1028.900024 2611.299805 C 1035 2612.5 1041.300049 2613.5 1047.699951 2614.199951 C 1039.699951 2610.399902 1032.800049 2598.399902 1031.900024 2589.199951 Z"/>
        <path id="path113" fill="#000000" stroke="none" d="M 1845.599976 1332.900024 C 1847.800049 1336 1850.199951 1337.900024 1852.900024 1338.800049 C 1851.900024 1334.300049 1850.900024 1329.700073 1849.800049 1325.200073 C 1846.300049 1327.400024 1846.800049 1330.300049 1845.599976 1332.900024 Z"/>
        <path id="path114" fill="#000000" stroke="none" d="M 1850.199951 1517.400024 C 1859.400024 1525.800049 1868.699951 1533.900024 1877.900024 1542.5 C 1877.199951 1514 1875.199951 1485.200073 1872 1456.300049 C 1862.5 1460.800049 1850.199951 1462.700073 1843.699951 1465.300049 C 1848.199951 1455.900024 1853.099976 1446.5 1863.5 1438.099976 C 1868.199951 1436.5 1863.800049 1447.200073 1864.800049 1450.599976 C 1866.900024 1450.599976 1869 1449.300049 1871 1447.5 C 1868 1421.900024 1864.099976 1396.300049 1859.300049 1371 C 1857.800049 1371.300049 1856.400024 1371.400024 1854.900024 1371.5 C 1853.199951 1378.5 1848.099976 1384.200073 1840.800049 1381 C 1838.099976 1372.700073 1838.300049 1362.900024 1843.199951 1354.099976 C 1847.400024 1353.599976 1850.400024 1355 1852.400024 1357.300049 C 1853.800049 1356.700073 1855 1356 1856.099976 1355.300049 C 1855.599976 1353.099976 1855.199951 1350.800049 1854.699951 1348.599976 C 1847.099976 1350.200073 1836.599976 1357.900024 1826.900024 1362 C 1826.199951 1365 1826.199951 1367.599976 1828.400024 1371.200073 C 1820.800049 1373.800049 1810.099976 1373.300049 1801.5 1374.900024 C 1795.300049 1366.5 1798 1358.400024 1804.699951 1354 C 1804.699951 1353.900024 1804.599976 1353.800049 1804.599976 1353.800049 C 1821.199951 1343.599976 1831.300049 1318.900024 1849 1323.700073 C 1839.199951 1282 1827 1241.300049 1812.699951 1202.800049 C 1793.099976 1150.200073 1770.300049 1103.300049 1744.900024 1063.200073 C 1738.699951 1073.400024 1728.900024 1082.400024 1721.400024 1077.599976 C 1720.099976 1071 1725.900024 1072.900024 1728.699951 1066.599976 C 1731.400024 1060.599976 1731.400024 1051.599976 1732.400024 1044.400024 C 1725 1033.700073 1717.400024 1023.5 1709.599976 1013.900024 C 1710.400024 1017.699951 1713.699951 1022.599976 1710.300049 1026.200073 C 1706.800049 1027.200073 1707.099976 1024.5 1704.199951 1025 C 1701.199951 1017.400024 1701.599976 1011.599976 1703.5 1006.5 C 1686.800049 986.800049 1669.300049 969.599976 1651.099976 955.300049 C 1648.5 953.199951 1647.400024 949.800049 1648.400024 946.599976 L 1651.300049 937.199951 C 1669.599976 878.5 1697.199951 789.800049 1703.900024 708.800049 C 1707.599976 664.899902 1704.599976 628.100098 1695 599.5 C 1685.5 571 1669.800049 550.5 1647.300049 537.100098 C 1649.099976 665.800049 1636.699951 787.5 1567.699951 860.900024 C 1568.5 860.300049 1569.300049 860 1570.300049 860.199951 C 1572 865.5 1565.599976 862.800049 1566.599976 867.5 C 1564.900024 866.5 1565.300049 863.900024 1566.599976 862.099976 C 1533.300049 897 1487 920.699951 1422.900024 928.699951 C 1422.900024 928.699951 1422.900024 928.800049 1422.900024 928.800049 C 1508.300049 970.300049 1593.599976 1018.599976 1656.400024 1085 C 1663.699951 1092.800049 1670.699951 1100.700073 1677.300049 1108.800049 C 1677.5 1108.700073 1677.599976 1108.5 1677.800049 1108.400024 C 1677.800049 1108.800049 1677.800049 1109.099976 1677.800049 1109.400024 C 1681.099976 1113.5 1684.300049 1117.599976 1687.400024 1121.700073 C 1687.5 1121.700073 1687.5 1121.800049 1687.599976 1121.800049 C 1687.599976 1121.800049 1687.599976 1121.900024 1687.599976 1121.900024 C 1707.400024 1148.300049 1723.599976 1176.5 1736.599976 1207.200073 C 1757.199951 1256 1769.599976 1310.200073 1774.300049 1372.900024 C 1780 1447.599976 1780.099976 1518.300049 1775 1584.800049 C 1778.5 1577.200073 1793.900024 1581.5 1803.800049 1580.400024 C 1803.400024 1604.700073 1785 1597.700073 1774.800049 1586.900024 C 1770.400024 1642 1762.400024 1694.099976 1750.800049 1743.200073 C 1755.199951 1741.5 1759.099976 1738.400024 1761.5 1731.599976 C 1766.699951 1737 1760.199951 1744 1764.800049 1749.5 C 1760.800049 1752.200073 1755.699951 1747.200073 1751.800049 1750.400024 C 1748.900024 1757.5 1750.5 1764.099976 1743.400024 1771.800049 C 1709.300049 1897.5 1650.800049 2001.900024 1569.699951 2082.299805 C 1570.400024 2090.5 1567.599976 2100.200195 1564.300049 2106 C 1562.199951 2100.600098 1555.5 2101.299805 1548.699951 2102.200195 C 1492 2153.200195 1425.300049 2193.399902 1349.099976 2222.100098 C 1349.699951 2222.899902 1350.5 2223.5 1351.400024 2224 C 1349.199951 2225.899902 1347.599976 2225 1346.199951 2223.100098 C 1294.699951 2242.199951 1238.900024 2256.099854 1178.900024 2264.399902 C 1178.599976 2271.599854 1178.300049 2278.699951 1178 2285.899902 C 1177.400024 2301.699951 1176.699951 2317.599854 1175.900024 2333.5 C 1176.400024 2333.799805 1176.900024 2334.099854 1177.300049 2334.399902 C 1176.300049 2335.299805 1176.400024 2336.699951 1175.699951 2337.699951 C 1175.400024 2343.299805 1175.099976 2348.799805 1174.699951 2354.299805 C 1180.5 2359.399902 1185.099976 2368 1190.400024 2374.299805 C 1182.5 2377.899902 1179.199951 2367.699951 1174.099976 2363.199951 C 1173.300049 2375.099854 1172.199951 2386.899902 1171 2398.5 C 1172.699951 2397.5 1174.5 2396.399902 1176.199951 2395.099854 C 1186.199951 2388 1190.599976 2372 1202.5 2373.799805 C 1191.099976 2379.399902 1180.199951 2398.5 1170.199951 2406 C 1168.099976 2423.5 1165.5 2440.399902 1162 2456.399902 C 1149.099976 2515.299805 1125.800049 2555.299805 1090.699951 2578.599854 C 1089.300049 2579.5 1087.699951 2580 1086 2579.899902 C 1077.800049 2579.599854 1069.199951 2579.699951 1060.599976 2579.799805 C 1061 2580.5 1061.400024 2581.299805 1062 2582.099854 C 1060 2584.5 1060.400024 2587.599854 1056 2589.199951 C 1057.5 2593.799805 1061.900024 2589.699951 1064.199951 2591.899902 C 1064.099976 2600.699951 1055.199951 2606.599854 1052.900024 2614.699951 C 1081.400024 2617.5 1112.400024 2616.399902 1138.5 2615.599854 C 1149.099976 2615.299805 1159.300049 2614.899902 1168.099976 2614.899902 C 1195.5 2585.099854 1207.800049 2550 1214.900024 2509 C 1214.599976 2508.799805 1214.300049 2508.599854 1214 2508.5 C 1214.300049 2508.599854 1214.599976 2508.699951 1214.900024 2508.799805 C 1219.099976 2484.699951 1221.5 2458.5 1224 2430.199951 C 1224.800049 2421.099854 1225.699951 2411.799805 1226.599976 2402.399902 C 1222.699951 2390.599854 1210.300049 2391.599854 1199.800049 2395.599854 C 1199.300049 2394.5 1198.699951 2393.399902 1198.199951 2392.299805 C 1205.699951 2385.599854 1218.099976 2378.5 1229.5 2375.5 C 1230.099976 2369.899902 1230.800049 2364.299805 1231.599976 2358.599854 C 1231.800049 2357.199951 1232.300049 2355.799805 1233.199951 2354.699951 C 1244 2340.799805 1255.800049 2330.699951 1268.300049 2323 C 1268.900024 2320.099854 1270 2317.299805 1271.599976 2314.699951 C 1276.699951 2313 1281.599976 2312 1286.400024 2311.399902 C 1287 2311.899902 1287.599976 2312.399902 1288.199951 2313 C 1309.5 2304.299805 1332.5 2300.399902 1356.199951 2296.5 C 1375.400024 2293.299805 1395.300049 2290 1415.900024 2284 C 1477.5 2265.899902 1540 2237.599854 1596.699951 2202.200195 C 1615.099976 2190.700195 1632.599976 2178.600098 1649.099976 2166 C 1646 2162.799805 1643.099976 2159.299805 1640.400024 2155.100098 C 1645 2153.299805 1645.5 2150.100098 1650.800049 2148.5 C 1653.800049 2150.600098 1655.800049 2155.700195 1658.400024 2158.799805 C 1667.199951 2151.799805 1675.599976 2144.700195 1683.699951 2137.5 C 1684 2136.200195 1684.599976 2134.899902 1685.800049 2133.700195 C 1686.300049 2133.899902 1686.900024 2134 1687.400024 2134.200195 C 1708.800049 2114.799805 1727.599976 2094.700195 1743.400024 2074.200195 C 1760 2052.700195 1775.900024 2024.5 1790.699951 1990.700073 C 1789.699951 1989.700073 1788.800049 1988.599976 1788.099976 1987.300049 C 1789.5 1985.300049 1791.800049 1983.300049 1794.599976 1981.700073 C 1795.199951 1980.300049 1795.800049 1978.900024 1796.400024 1977.5 C 1796.199951 1977.099976 1796 1976.700073 1795.800049 1976.300049 C 1796.199951 1976.300049 1796.599976 1976.200073 1797 1976.200073 C 1801.699951 1964.900024 1806.199951 1953 1810.599976 1940.599976 C 1810.300049 1939.700073 1809.900024 1938.800049 1809.5 1938 C 1808.099976 1936.5 1806.900024 1936.099976 1805.800049 1936.200073 C 1806.699951 1938.300049 1807.300049 1940.800049 1807.599976 1943.700073 C 1799.099976 1942.800049 1794 1941.099976 1784.300049 1944.700073 C 1778.199951 1940.700073 1778.599976 1929.300049 1779.699951 1921.900024 C 1786.199951 1923.200073 1792.800049 1924.300049 1798.099976 1927.300049 C 1799.400024 1919.400024 1808.599976 1921.400024 1815.300049 1927.5 C 1818.300049 1918.700073 1821.199951 1909.599976 1824 1900.300049 C 1822.900024 1901.400024 1821.5 1902.300049 1819.5 1903.099976 C 1817.199951 1898.200073 1822.5 1895.800049 1826.300049 1893 C 1832.699951 1871.599976 1838.699951 1849 1844.199951 1825.400024 C 1863.900024 1741.300049 1876 1652 1877.800049 1578.800049 C 1876.099976 1577.800049 1874.5 1576.5 1873 1575.099976 C 1849.5 1584.099976 1847.800049 1543 1835 1527.900024 C 1837 1522.700073 1844.800049 1517.300049 1850.199951 1517.400024 Z M 1696.699951 609.399902 C 1696.5 610.800049 1697 611.600098 1697.900024 611.800049 C 1698.900024 615.300049 1696.199951 615 1696.699951 617.899902 C 1692.5 618.800049 1694.699951 613.399902 1691.800049 613 C 1692.800049 611.199951 1693.599976 609.199951 1696.699951 609.399902 Z M 1520.599976 970.099976 C 1517 970.400024 1516.300049 965.699951 1518.199951 964 C 1520.800049 964.199951 1520.699951 967.099976 1520.599976 970.099976 Z M 1530.300049 933.400024 C 1528.400024 934.900024 1519.800049 935.800049 1518.099976 933.400024 C 1516.199951 927.300049 1532.099976 928.300049 1530.300049 933.400024 Z M 1587.800049 899.199951 C 1583.199951 900.5 1584.300049 896.199951 1580.5 896.800049 C 1575.300049 898.099976 1572.199951 901.5 1567 902.900024 C 1558.5 898.099976 1563.400024 881.5 1563.300049 871.099976 C 1582.400024 868.599976 1592.199951 886.199951 1587.800049 899.199951 Z M 1602.5 888.199951 C 1609.199951 888.5 1610.199951 894.300049 1612.300049 899.199951 C 1608.599976 896 1603 894.599976 1602.5 888.199951 Z M 1635.5 949.300049 C 1631.599976 949.099976 1630.099976 946.5 1630.599976 942 C 1632.900024 943.800049 1636 944.699951 1635.5 949.300049 Z M 1617.199951 805 C 1621.800049 804.300049 1625.199951 802.400024 1628.199951 800.099976 C 1629.199951 795.900024 1626.400024 795.400024 1627 791.5 C 1631.099976 791.199951 1634 789.599976 1639.199951 790.300049 C 1640.300049 794.099976 1643.300049 796 1644.099976 800.099976 C 1631.599976 797 1625.5 819.400024 1617.199951 805 Z M 1733.300049 1142.599976 C 1724.800049 1143.700073 1721 1140.300049 1713.699951 1140.200073 C 1718.900024 1133.599976 1728.199951 1131 1738.199951 1129.200073 C 1735.400024 1132.400024 1733.800049 1136.900024 1733.300049 1142.599976 Z M 1748 1215.900024 C 1743.099976 1212.700073 1744.699951 1204.900024 1745.599976 1198.800049 C 1749.400024 1198.200073 1748.800049 1202.099976 1751.699951 1202.5 C 1750.599976 1207.099976 1748.199951 1210.400024 1748 1215.900024 Z M 1315.099976 2283.5 C 1318.800049 2286.699951 1326.199951 2286.199951 1327.300049 2292.099854 C 1320.400024 2295.699951 1315.599976 2290 1315.099976 2283.5 Z M 1548.699951 2133.100098 C 1545.699951 2136.299805 1539.900024 2136.5 1537.699951 2140.399902 C 1534.199951 2137.600098 1539.699951 2133.5 1540.099976 2130.600098 C 1538.5 2128.399902 1533 2132.600098 1530.300049 2129.399902 C 1530.599976 2114 1549.599976 2122.899902 1548.699951 2133.100098 Z M 1564.300049 2217.399902 C 1561.099976 2208.899902 1565.699951 2206.200195 1566.800049 2201 C 1578.300049 2202.100098 1576.300049 2216.700195 1564.300049 2217.399902 Z M 1675.699951 1992.700073 C 1674.5 1995.900024 1676.900024 2000.400024 1677.300049 2004.200073 C 1667.099976 2009.099976 1671.5 2023.400024 1662 2025.5 C 1662.900024 2014.5 1668.300049 2005.099976 1661.5 1991.599976 C 1667.599976 1991.300049 1678.300049 1989.700073 1679 1996.5 C 1677.400024 1996.900024 1676.800049 1994.200073 1675.699951 1992.700073 Z M 1718 2036.5 L 1727.699951 2050.700195 C 1721.699951 2046.300049 1718.800049 2041.5 1718 2036.5 Z M 1756.099976 2049.600098 C 1753.400024 2045.700073 1756.599976 2043.700073 1755.599976 2040.300049 C 1758.599976 2037.800049 1759.800049 2040.599976 1762.699951 2038.099976 C 1766.400024 2043.900024 1760.199951 2046.400024 1756.099976 2049.600098 Z M 1775.400024 1778.099976 C 1764.800049 1779.300049 1754.800049 1766.5 1761.900024 1753.599976 C 1768.800049 1754.900024 1775.300049 1756.5 1782.699951 1757.300049 C 1785.099976 1766.099976 1787 1776.700073 1775.400024 1778.099976 Z M 1819.099976 1910.099976 C 1819.300049 1912.900024 1811.900024 1915.599976 1811.400024 1911.200073 C 1814.599976 1909 1816.5 1910.700073 1819.099976 1910.099976 Z M 1809 1492.300049 C 1814.300049 1493.900024 1819.5 1496 1825.300049 1494.5 C 1814.599976 1505.900024 1798 1510.400024 1789 1495.900024 C 1794.300049 1491.5 1798.900024 1490.599976 1803.300049 1491.099976 C 1795 1478.300049 1819.099976 1474.700073 1811.5 1464.300049 C 1821.900024 1468.900024 1835.199951 1470.700073 1848.199951 1472.900024 C 1843.400024 1487.400024 1828.199951 1491.900024 1809 1492.300049 Z"/>
        <path id="path115" fill="#000000" stroke="none" d="M 1272.900024 2140.700195 C 1276.300049 2139.5 1279.699951 2138.399902 1283.099976 2137.200195 C 1282.900024 2136.799805 1282.599976 2136.399902 1282.400024 2136 C 1278.699951 2137 1275.699951 2138.700195 1272.900024 2140.700195 Z"/>
        <path id="path116" fill="#000000" stroke="none" d="M 502.700012 2114.200195 C 503.200012 2114.5 503.700012 2114.700195 504.299988 2115 C 504.200012 2114.600098 504.200012 2114.200195 504.100006 2113.799805 C 503.700012 2113.899902 503.200012 2114 502.700012 2114.200195 Z"/>
        <path id="path117" fill="#000000" stroke="none" d="M 1059.300049 2491 C 1089.099976 2435.699951 1093.699951 2352.699951 1098.300049 2272.299805 C 1098.699951 2265.099854 1099.099976 2257.799805 1099.599976 2250.399902 C 1096.900024 2250.899902 1093.900024 2252.5 1091.599976 2251.799805 C 1090 2247.899902 1086.300049 2243.399902 1087.199951 2240.299805 C 1092.900024 2239.5 1093.599976 2237.099854 1099.199951 2234.299805 C 1099.599976 2234.700195 1100 2235 1100.400024 2235.299805 C 1101.400024 2219.600098 1102.5 2203.899902 1104 2188.600098 C 1104.400024 2185 1107.099976 2182.100098 1110.599976 2181.5 C 1165.199951 2171.899902 1216.199951 2159.299805 1263.199951 2143.899902 C 1257.699951 2140.5 1253.5 2135.799805 1254.199951 2126.200195 C 1257.099976 2124.600098 1258.699951 2121.700195 1264 2122.5 C 1265.5 2126.700195 1266.699951 2131.299805 1266.400024 2137.200195 C 1271.900024 2136.200195 1276.599976 2134.399902 1281.099976 2132.299805 C 1279.400024 2126.700195 1280 2121 1282.300049 2116.399902 C 1290.800049 2115.200195 1301.099976 2115.799805 1309.199951 2111.5 C 1307.400024 2099.399902 1308.800049 2084.100098 1297 2082.200195 C 1311.699951 2073.799805 1335.5 2081.100098 1348.400024 2085.899902 C 1348.599976 2088 1349 2090.200195 1349.5 2092.399902 C 1353.400024 2093.299805 1356.199951 2094.799805 1356.800049 2097.799805 C 1356.900024 2098.299805 1355.400024 2100.600098 1353.400024 2103.100098 C 1354.199951 2104.700195 1355.099976 2106.200195 1356.099976 2107.600098 C 1360.400024 2105.600098 1364.599976 2103.600098 1368.800049 2101.5 C 1367.599976 2098.700195 1366.599976 2095.700195 1365.400024 2092.899902 C 1365.800049 2088.399902 1370.599976 2088.299805 1372.699951 2085.600098 C 1373 2080.799805 1367.5 2081.899902 1367.800049 2077 C 1372 2074.700195 1379.199951 2075.399902 1380 2069.700195 C 1376.5 2066.299805 1369 2074.299805 1364.099976 2069.700195 C 1363.099976 2066.200195 1365.800049 2066.5 1365.300049 2063.600098 C 1389.300049 2054.100098 1395.300049 2079 1415.400024 2073.399902 C 1414.199951 2075.100098 1413 2076.799805 1411.699951 2078.399902 C 1453.199951 2054.100098 1490.400024 2026.300049 1522.699951 1995.300049 C 1528.699951 1989.5 1534.599976 1983.599976 1540.300049 1977.5 C 1538.199951 1973.700073 1539.099976 1968 1539.800049 1964.300049 C 1542.400024 1963 1544.800049 1962.599976 1547.199951 1962.099976 C 1548.400024 1963.5 1549.5 1964.900024 1550.699951 1966.200073 C 1555.400024 1960.900024 1560 1955.599976 1564.400024 1950.099976 C 1548.599976 1935.099976 1545.900024 1905 1553.199951 1889.400024 C 1549.599976 1883.5 1545.199951 1881.700073 1541.699951 1875 C 1549.800049 1870.099976 1553.699951 1862.700073 1561.199951 1864.400024 C 1563.099976 1873.200073 1563.199951 1881.800049 1557.599976 1889.200073 C 1571.800049 1893.700073 1567.199951 1910.800049 1573.400024 1918.400024 C 1579.199951 1915.5 1584.5 1915.300049 1589.5 1916.700073 C 1610.5 1886.5 1628.599976 1854 1643.599976 1819.200073 C 1660.099976 1780.900024 1673.099976 1739.300049 1682.599976 1694.599976 C 1678.199951 1688 1677.400024 1675.900024 1682.900024 1670.900024 C 1684.199951 1671.599976 1685.5 1672.800049 1686.699951 1674.200073 C 1692.5 1643.099976 1696.599976 1610.700073 1699 1576.900024 C 1704.400024 1500.5 1705.099976 1436.300049 1701 1380.5 C 1699.800049 1363.200073 1698 1346.700073 1695.800049 1330.900024 C 1691.300049 1330 1686.900024 1328.800049 1684.400024 1325.900024 C 1685.900024 1320.099976 1692 1318.800049 1691.699951 1311.200073 C 1692.099976 1311.400024 1692.400024 1311.599976 1692.800049 1311.800049 C 1685.099976 1266.800049 1673.199951 1228.900024 1657.300049 1198.700073 C 1637.900024 1161.900024 1583.199951 1119 1499.099976 1074.599976 C 1484.400024 1066.800049 1461.199951 1057.800049 1436.599976 1048.300049 C 1412.300049 1038.900024 1387.800049 1029.400024 1366.199951 1019.400024 C 1365.5 1020.199951 1364.699951 1020.900024 1363.900024 1021.400024 C 1361 1020.199951 1359.199951 1018.099976 1358 1015.599976 C 1328.099976 1001 1305.300049 985.5 1299.699951 968.099976 C 1289.400024 936.199951 1290.599976 908.699951 1303 886.300049 C 1326.400024 844.199951 1384.400024 827.400024 1438.599976 813.800049 C 1439.599976 812.699951 1441.099976 812.099976 1443.400024 812.400024 C 1443.400024 812.5 1443.400024 812.5 1443.400024 812.599976 C 1445.699951 812 1447.900024 811.5 1450.199951 810.900024 C 1483.599976 802.599976 1515.199951 794.699951 1529.900024 782.699951 C 1559 688.600098 1563 570.399902 1562.900024 476.699951 C 1517.5 442.300049 1457.099976 435.899902 1393.300049 429.199951 C 1340.199951 423.600098 1285.300049 417.800049 1236.099976 395.100098 C 1234.900024 394.5 1233.800049 393.600098 1233 392.5 C 1208.300049 358.300049 1194.900024 316.899902 1190.800049 262.199951 C 1187.400024 216.600098 1190.699951 165.5 1197 103.199951 C 1153.5 79.600098 1130.099976 82 1092.099976 85.899902 C 1077.400024 87.5 1060.800049 89.199951 1040.300049 89.699951 C 1000.900024 158.399902 989.599976 253.399902 984.099976 328.899902 C 984 330.399902 983.5 331.800049 982.599976 333 C 941.400024 390.5 890 385.399902 835.599976 380.100098 C 809.900024 377.5 783.400024 374.899902 756.299988 378.699951 C 737.400024 381.399902 718.799988 385.300049 700.599976 390.300049 C 704.599976 393.600098 708.900024 396.600098 715.299988 397.5 C 716.200012 402.699951 718.200012 406.899902 717.700012 413.399902 C 713.099976 415.300049 710.400024 419.199951 705.5 420.699951 C 701.5 419.800049 699.099976 417.300049 698.200012 413.399902 C 701 413.699951 702.799988 413.100098 703.099976 411 C 703.5 400.899902 696 398.800049 692.5 392.699951 C 623.400024 413.5 560.5 451.699951 508.200012 505.100098 C 476.5 537.5 449.200012 574.800049 426.899994 616.199951 C 405.100006 656.699951 388.600006 700.100098 377.899994 745.199951 C 372.5 768.099976 368.600006 791 366.299988 813.800049 C 370.600006 816.800049 376.600006 818.199951 382.700012 819.400024 C 382.899994 822.900024 384.899994 824.5 385.100006 828 C 380.5 827.599976 372.899994 822.300049 365.600006 820.099976 C 362.100006 859.900024 363.200012 899.199951 369.100006 937.400024 C 369.100006 937.199951 369.200012 937 369.200012 936.900024 C 382.100006 935.300049 394.200012 930.099976 407.100006 932 C 408 937.5 411.700012 938.400024 409.5 944.199951 C 413.299988 944.800049 414.299988 941.5 416.799988 944.199951 C 416 947.5 418.399994 953.900024 415.600006 955.199951 C 410.899994 957.900024 411.600006 953.099976 409.5 950.300049 C 406.100006 951.400024 406.899994 956.699951 404.600006 958.900024 C 395.299988 958 392.100006 951 388.700012 944.199951 C 380.700012 947.199951 379.899994 957.400024 376.5 965 C 375.700012 964.400024 374.799988 964.199951 374 964.199951 C 376.899994 977.599976 380.399994 990.800049 384.399994 1003.800049 C 397.600006 1045.900024 417 1084.800049 441.899994 1119.5 C 468.200012 1156.099976 500.799988 1187.900024 538.700012 1214.099976 C 572 1237 622.299988 1251.200073 675.599976 1266.200073 C 728.400024 1281.099976 783.099976 1296.400024 825.200012 1321.900024 C 874.299988 1351.599976 898.5 1390.700073 899.200012 1441.5 C 900.200012 1513.5 873.299988 1561.200073 817.200012 1587.300049 C 768.5 1609.900024 702.799988 1613.900024 639.299988 1617.800049 C 561.400024 1622.5 481 1627.400024 432 1666.200073 C 434.399994 1706 432.5 1745.200073 429.5 1783.599976 C 434.399994 1781.599976 439.200012 1779.599976 442.600006 1776.800049 C 442 1775.099976 441.399994 1773.400024 440.799988 1771.800049 C 442.299988 1770.200073 444.5 1769.099976 447.200012 1768.300049 C 447.200012 1767.599976 447.200012 1766.900024 447.100006 1766.200073 C 448.700012 1765.900024 450.5 1766.400024 452.200012 1767.400024 C 458.200012 1766.700073 464.700012 1767.099976 468.600006 1767.700073 C 467.700012 1773.599976 464.100006 1777.400024 460.899994 1781.599976 C 460.799988 1783.599976 460.100006 1785.400024 458.399994 1786.700073 C 458.299988 1786.5 458.100006 1786.300049 458 1786.099976 C 457.100006 1787.800049 456.399994 1789.700073 456.100006 1791.800049 C 450.299988 1789.700073 447 1786 444.799988 1781.800049 C 440.5 1787.099976 442.100006 1793.5 436.899994 1798.599976 C 434.799988 1793.5 431.600006 1794 428.799988 1792.900024 C 427.700012 1806.200073 426.399994 1819.5 425.200012 1832.599976 C 420.899994 1878.900024 416.799988 1922.599976 418.700012 1962.400024 C 420.799988 2006.200073 430 2039.099976 447.600006 2066.100098 C 457.899994 2081.899902 472 2095.5 489.600006 2106.700195 C 490.200012 2105.600098 491 2104.5 492.100006 2103.5 C 503.299988 2100.5 512.400024 2109.799805 515.400024 2120.299805 C 537.200012 2129.799805 563 2136.799805 592.599976 2141.200195 C 594 2139.100098 594.400024 2136.100098 597.299988 2134.100098 C 599.599976 2134.399902 601.299988 2137.799805 603.200012 2140.399902 C 603.200012 2141.100098 602.700012 2141.799805 602.099976 2142.399902 C 606.400024 2142.899902 610.700012 2143.399902 615.200012 2143.899902 C 615.400024 2143.799805 615.599976 2143.700195 615.900024 2143.5 C 615.900024 2143.600098 615.900024 2143.799805 615.900024 2143.899902 C 680 2150 758.599976 2145.700195 856.299988 2130.5 C 859.099976 2130.100098 861.799988 2131.100098 863.599976 2133.200195 C 884 2156.700195 893.099976 2191.100098 896.900024 2230.200195 C 899.400024 2228.100098 901.400024 2225.600098 903.700012 2222.799805 C 903.099976 2226.799805 901 2230.399902 898.200012 2233.700195 C 899.5 2237.899902 903.400024 2234.5 904.799988 2238.599854 C 903.599976 2242.5 901 2238.399902 898.200012 2239.099854 C 898.099976 2239.899902 898 2240.699951 897.900024 2241.5 C 900 2271.199951 899.599976 2303.199951 899.099976 2334.699951 C 898.5 2382.799805 897.900024 2432.5 906.5 2471.599854 C 954.799988 2482.899902 990.900024 2489 1036.699951 2493.599854 C 1036.800049 2493.199951 1036.900024 2492.799805 1037 2492.399902 C 1045.800049 2486.899902 1053.199951 2485.699951 1058.300049 2491.299805 C 1058.599976 2491.299805 1059 2491.199951 1059.300049 2491 Z M 1680.5 1479 C 1705.900024 1485.099976 1693.300049 1536.400024 1668.5 1506.700073 C 1670.300049 1497.099976 1677.199951 1488.300049 1680.5 1479 Z M 1629.099976 1760.5 C 1631 1757 1628.5 1752.800049 1628.5 1749 C 1634.400024 1751.800049 1641.400024 1748.700073 1646.599976 1755.800049 C 1631.900024 1763.400024 1648.400024 1776.599976 1645.5 1786.400024 C 1637.300049 1785.700073 1639.800049 1791.5 1635.900024 1796.099976 C 1620.099976 1787.099976 1614.199951 1772.200073 1629.099976 1760.5 Z M 1525 1870.900024 C 1527.900024 1872.300049 1531.099976 1873.300049 1531.099976 1878.599976 C 1536 1878.300049 1537.300049 1875.300049 1536.099976 1870.400024 C 1546.099976 1877.400024 1541.5 1898.599976 1525.900024 1892.900024 C 1525.099976 1885.300049 1521.699951 1875.599976 1525 1870.900024 Z M 1534.699951 600.5 C 1526.400024 599 1519.300049 596.300049 1513.900024 591.899902 C 1516.900024 588.899902 1513 586.600098 1513.900024 582.100098 C 1521 586.399902 1527 591.899902 1537.099976 593.100098 C 1537.699951 597.100098 1535.400024 598 1534.699951 600.5 Z M 1505.900024 520.100098 C 1517.599976 518.199951 1517.099976 528.5 1524.199951 531.100098 C 1527.300049 530.5 1529.199951 528.699951 1530.300049 526.199951 C 1534.5 527.699951 1541.300049 526.600098 1545 528.600098 C 1544.300049 534.100098 1541.300049 537.199951 1542.599976 544.5 C 1538.099976 548.100098 1533.099976 551.300049 1526.699951 553.100098 C 1517.900024 544.699951 1502.599976 536.5 1505.900024 520.100098 Z M 1483.900024 560.399902 C 1485.099976 564.800049 1479.099976 562.100098 1476.599976 562.800049 C 1476.699951 559.800049 1480.599976 560.5 1483.900024 560.399902 Z M 1387.300049 593.5 C 1385.800049 598.699951 1385.800049 604.199951 1387.300049 609.399902 C 1384 606.199951 1382.400024 601.199951 1381.199951 595.899902 C 1383.5 595.399902 1383.400024 592.399902 1387.300049 593.5 Z M 1354.199951 778.099976 C 1356.400024 778.400024 1357 780.199951 1356.599976 783 C 1354.400024 782.800049 1354 784.5 1351.699951 784.199951 C 1353 782.599976 1353 779.699951 1354.199951 778.099976 Z M 1364 797.699951 C 1363.800049 804.199951 1357.800049 808.099976 1351.800049 805 C 1351.599976 798.300049 1356.800049 797 1364 797.699951 Z M 1315.099976 805 C 1316.699951 810.800049 1321.800049 813 1329.800049 812.300049 C 1328.5 805.800049 1326.800049 799.800049 1318.800049 800.099976 C 1323.300049 790.400024 1338.5 780.099976 1349.400024 787.900024 C 1349.800049 792.099976 1343.900024 796.199951 1348.199951 800.099976 C 1336.900024 803.5 1330.199951 811.5 1327.400024 823.300049 C 1316.699951 830 1307.5 826.800049 1301.699951 817.199951 C 1305 812 1309.5 807.900024 1315.099976 805 Z M 1154.400024 1859.800049 C 1145.699951 1849.800049 1155.300049 1843 1152.900024 1834 C 1150 1828.800049 1145.900024 1830.599976 1142.900024 1826.099976 C 1158.599976 1813.800049 1168.5 1833.599976 1179.599976 1846.700073 C 1173.800049 1855.400024 1160.699951 1848.5 1154.400024 1859.800049 Z M 1193.5 1847.5 C 1187 1832.400024 1172.800049 1836.300049 1168.300049 1826.300049 C 1186.5 1809.5 1196.599976 1838.200073 1213.5 1829.099976 C 1210.599976 1834.400024 1213.300049 1840.800049 1213.800049 1846.700073 C 1208.900024 1846.5 1204.800049 1841.400024 1199.800049 1841.5 C 1195.800049 1843.200073 1197 1845.800049 1193.5 1847.5 Z M 1252.599976 1973.200073 C 1245.699951 1970.200073 1235.099976 1959.099976 1240.599976 1951.700073 C 1247.400024 1951.200073 1254.199951 1950.900024 1260.900024 1951 C 1259.699951 1958.599976 1261.199951 1966.800049 1252.599976 1973.200073 Z M 1279.699951 1900.700073 C 1273.800049 1902.400024 1269.599976 1895 1263.699951 1896.900024 C 1259.199951 1902.200073 1256.400024 1907.900024 1252.800049 1913.400024 C 1241.099976 1914.900024 1228 1924.099976 1215.800049 1928.700073 C 1206.699951 1917.800049 1213.800049 1906.700073 1225.800049 1902.400024 C 1228.400024 1899.099976 1222.099976 1894.099976 1223.5 1890.599976 C 1228.300049 1890 1232 1895.599976 1237.400024 1891.300049 C 1240.699951 1882.5 1226.699951 1882.5 1223.5 1875.599976 C 1219.800049 1867.800049 1228 1847.300049 1240.400024 1840 C 1251.5 1841.900024 1262.400024 1844.5 1272.800049 1850.200073 C 1270.199951 1860.200073 1268.599976 1871.300049 1281.199951 1881.599976 C 1275.199951 1886.900024 1272.300049 1895.800049 1279.699951 1900.700073 Z M 1230.699951 1795.099976 C 1230.900024 1794.900024 1231 1794.700073 1231.099976 1794.400024 C 1231 1794.800049 1230.900024 1795 1230.699951 1795.099976 Z M 1292 2062 C 1290.5 2057.5 1288.599976 2047.5 1281.900024 2049.600098 C 1285.699951 2048.100098 1290 2043.599976 1292.199951 2040.900024 C 1295 2046.400024 1298.5 2048 1301.599976 2052.299805 C 1295 2054.899902 1297.5 2059.100098 1292 2062 Z M 1299.900024 2062.5 C 1296.699951 2059.299805 1303.800049 2057.899902 1302.099976 2055 C 1303.699951 2054.399902 1304.699951 2056.899902 1305.900024 2058.299805 C 1303.900024 2059.700195 1301.900024 2061.100098 1299.900024 2062.5 Z M 1319.5 2041.400024 C 1309.800049 2040 1299.5 2041.700073 1290.599976 2036.200073 C 1290.300049 2014.200073 1324.400024 2020.800049 1319.5 2041.400024 Z M 1347 1976.099976 C 1344.900024 1981.300049 1342.5 1986.400024 1339.800049 1991.5 C 1333.199951 1985.099976 1339.699951 1977.099976 1347 1976.099976 Z M 1344.900024 2007.300049 C 1343.099976 2004 1346.800049 2001.800049 1344.699951 1998.5 C 1347.5 1997.800049 1350 1998.5 1351.900024 2002.400024 C 1347.599976 2005.099976 1348.900024 2006.5 1344.900024 2007.300049 Z M 1302.5 1580 C 1305.099976 1577.700073 1308.900024 1577.400024 1311.900024 1579.200073 C 1336.599976 1594.200073 1365.800049 1631.800049 1369.900024 1666.300049 C 1372.099976 1684.099976 1367.199951 1699.400024 1355.900024 1710.700073 C 1354.400024 1712.200073 1352.400024 1713 1350.300049 1713 C 1350 1713 1349.800049 1713 1349.5 1713 C 1336 1711.599976 1322.5 1704.700073 1310.699951 1692.900024 C 1299.900024 1682.099976 1291.199951 1667.900024 1286.400024 1653 C 1277.099976 1624.200073 1283.099976 1596.900024 1302.5 1580 Z M 1287 805 C 1290.800049 820.599976 1276.199951 828.5 1277.199951 845.400024 C 1264 833.099976 1275.699951 810.900024 1287 805 Z M 1263.699951 772 C 1268.400024 772.199951 1268.5 777 1272.300049 778.099976 C 1270.900024 779.5 1262.800049 777.099976 1263.699951 772 Z M 1255.900024 1360 C 1251.400024 1362.400024 1245.099976 1356.200073 1243.699951 1351.400024 C 1251.199951 1350.700073 1252 1356.900024 1255.900024 1360 Z M 1241.699951 769.599976 C 1246.5 771.300049 1248.800049 775.5 1249 781.800049 C 1247.199951 783.699951 1242.699951 782.900024 1239.199951 783 C 1239.300049 775.199951 1240 775.599976 1241.699951 769.599976 Z M 1246.599976 791.599976 C 1250.900024 795.300049 1240.900024 794 1239.300049 792.800049 C 1240 788.800049 1247.199951 794.300049 1246.599976 791.599976 Z M 1123.800049 1702.300049 C 1132.599976 1703.599976 1136.300049 1710.5 1145 1711.400024 C 1148.699951 1711.800049 1152.699951 1710.599976 1156.699951 1709.900024 C 1155.800049 1706.099976 1155.400024 1702.200073 1155.599976 1698.200073 C 1156.599976 1676.200073 1173.800049 1657 1194 1655.5 C 1206 1654.599976 1235.199951 1659 1247.5 1720.400024 C 1247.800049 1721.700073 1247.699951 1722.900024 1247.400024 1724.099976 C 1245.400024 1731.5 1240.699951 1736 1236.900024 1739.599976 C 1233.199951 1743.099976 1231.199951 1745.200073 1230.599976 1748.800049 C 1230.300049 1750.900024 1229.099976 1752.800049 1227.400024 1754 C 1226 1755 1224.400024 1755.5 1222.699951 1755.5 C 1222.300049 1755.5 1221.800049 1755.5 1221.400024 1755.400024 C 1210 1753.5 1200.099976 1750.700073 1191.5 1746.900024 C 1189 1756.700073 1195.5 1768.099976 1185.900024 1776.700073 C 1179.699951 1778.5 1175.199951 1771 1168.900024 1773.599976 C 1165.5 1762.5 1175.800049 1750.700073 1188.099976 1745.300049 C 1181.199951 1741.900024 1175.300049 1737.900024 1170.400024 1733.200073 C 1167.199951 1730.099976 1164.5 1726.800049 1162.300049 1723.200073 C 1160.300049 1728.099976 1159.400024 1733.200073 1156 1737.800049 C 1153 1734.700073 1149.599976 1734.300049 1146.699951 1730.900024 C 1140.699951 1731.200073 1145.5 1735.800049 1140.099976 1738.5 C 1134.599976 1732.300049 1143.199951 1719.099976 1131.800049 1711.5 C 1127.699951 1714 1131.699951 1717.900024 1127.599976 1720.400024 C 1123.300049 1725 1120.5 1721 1116.800049 1722 C 1116.900024 1715.099976 1125.5 1709.599976 1123.800049 1702.300049 Z M 446.299988 773 C 445.600006 768.400024 443.700012 765 441.399994 762 C 437.200012 761 436.700012 763.800049 432.799988 763.199951 C 432.5 759.099976 430.899994 756.199951 431.600006 751 C 435.399994 749.900024 437.299988 746.900024 441.399994 746.099976 C 438.299988 758.5 460.700012 764.699951 446.299988 773 Z M 453.600006 946.599976 C 459 946.099976 461.899994 948.099976 462.200012 952.699951 C 456.700012 953.300049 453.100006 952.099976 453.600006 946.599976 Z M 470.700012 958.900024 C 467.200012 954.599976 473 941.099976 463.399994 943 C 464.299988 939.400024 467.200012 937.800049 472 938.099976 C 472 943.699951 478.100006 957.5 470.700012 958.900024 Z M 540.400024 777.900024 C 537.200012 781.599976 535.799988 787.199951 529.400024 787.699951 C 529.700012 781 535.599976 779.900024 540.400024 777.900024 Z M 512.299988 826.800049 C 509.799988 807.800049 527.400024 797.900024 540.400024 802.300049 C 541.700012 806.900024 537.400024 805.800049 538 809.599976 C 539.299988 814.800049 542.700012 817.900024 544.099976 823.099976 C 539.299988 831.599976 522.700012 826.699951 512.299988 826.800049 Z M 577.099976 960.099976 C 576.200012 956.400024 578.400024 955.599976 578.299988 952.800049 C 582.099976 952.199951 581.5 956.099976 584.400024 956.5 C 583.400024 959 581.5 960.699951 577.099976 960.099976 Z M 583.200012 759.5 C 585 757.199951 585.900024 754.099976 590.5 754.599976 C 590.400024 758.599976 587.799988 760 583.200012 759.5 Z M 659.099976 923.400024 C 652.700012 923.400024 648.5 915.699951 650.5 911.199951 C 656.5 911.699951 661.400024 918.5 659.099976 923.400024 Z M 1098.099976 100.399902 C 1101.099976 103.5 1100.400024 110.399902 1104.199951 112.600098 C 1100.400024 122.300049 1089.300049 124.600098 1074.800049 123.600098 C 1076.5 116.600098 1072 115.800049 1071.099976 111.399902 C 1079.099976 106.699951 1085 99.899902 1098.099976 100.399902 Z M 1084.900024 2231.299805 C 1073.800049 2239 1064 2231 1059.199951 2217.899902 C 1070.900024 2207.799805 1082.300049 2218.899902 1084.900024 2231.299805 Z M 1057.099976 1618.300049 C 1053.800049 1628.800049 1039.400024 1628.300049 1029 1631.800049 C 1029 1627.300049 1029 1622.800049 1029 1618.300049 C 1036.300049 1625.099976 1046.800049 1618.700073 1057.099976 1618.300049 Z M 1038.699951 1602.400024 C 1039.400024 1610 1033.199951 1610.800049 1030.099976 1614.599976 C 1027.699951 1610.099976 1034 1603.800049 1038.699951 1602.400024 Z M 1047.300049 1574.200073 C 1040.400024 1566.400024 1033.699951 1558.400024 1027.699951 1549.700073 C 1038 1526.900024 1051.900024 1560.300049 1047.300049 1574.200073 Z M 1022.299988 508.800049 C 1023.200012 515 1019.299988 516.399902 1017.400024 519.800049 C 1013.599976 516.699951 1013.799988 509.600098 1011.299988 505.100098 C 1016.099976 505.199951 1018.400024 507.899902 1022.299988 508.800049 Z M 1022.299988 549.199951 C 1014 551.899902 1004.200012 551.699951 995.400024 546.800049 C 993.299988 527.399902 1029.199951 533.300049 1022.299988 549.199951 Z M 893.900024 479.5 C 899.299988 480.300049 899.099976 486.5 898.799988 493 C 894.299988 493.899902 893.599976 490.899902 889 491.800049 C 888.700012 485.699951 892.099976 483.399902 893.900024 479.5 Z M 885.299988 501.5 C 887.400024 503.5 890.5 508.100098 887.700012 511.300049 C 884.900024 510 885.200012 505.699951 885.299988 501.5 Z M 843.700012 638.5 C 848.299988 639.600098 851.599976 642 857.200012 642.199951 C 854 647.100098 846.200012 645.5 840.099976 644.600098 C 839.5 640.699951 843.400024 641.300049 843.700012 638.5 Z M 805.799988 543.100098 C 809.5 539.899902 821 537 825.400024 541.899902 C 825.900024 549 818 547.600098 815.599976 551.699951 C 816.700012 557.899902 826.599976 555.399902 830.299988 559 C 829.799988 567.399902 826.799988 573.5 821.700012 577.300049 C 812.900024 574.699951 807.400024 568.699951 800.900024 563.800049 C 802.799988 557.199951 807.400024 553.199951 805.799988 543.100098 Z M 776.5 539.399902 C 779.799988 540.199951 781.200012 542.899902 783.799988 544.300049 C 782.099976 549.5 775.700012 544.199951 776.5 539.399902 Z M 727.599976 437.899902 C 722.200012 438 719.900024 435 717.799988 431.800049 C 718.599976 428.100098 720.5 425.5 725.099976 425.699951 C 724.799988 430.899902 728.299988 432.300049 727.599976 437.899902 Z M 749.599976 711.800049 C 757 712.5 759.200012 707.599976 763.099976 702 C 766.900024 702.699951 771.099976 703 774.099976 704.400024 C 769.200012 708.699951 755.700012 720.900024 749.599976 711.800049 Z M 762.299988 906.5 C 759.599976 902.300049 761.5 894 762.299988 889.400024 C 766.200012 893.699951 768.5 899.5 770.900024 905.300049 C 766.700012 904.300049 766.200012 907.099976 762.299988 906.5 Z M 779.5 929.800049 C 776.599976 929 773.799988 928.199951 773.400024 924.900024 C 775.400024 924.900024 777.5 924.900024 779.5 924.900024 C 779.5 926.5 779.5 928.099976 779.5 929.800049 Z M 781.400024 676.399902 C 774.799988 671.199951 772.200012 661.899902 770.400024 651.899902 C 773.700012 654.699951 778.200012 656.300049 783.900024 656.800049 C 784.900024 665.300049 781.5 669.100098 781.400024 676.399902 Z M 789.900024 550.399902 C 797.900024 552.199951 794 562.100098 787.5 562.600098 C 784.099976 558.399902 788.599976 553.800049 789.900024 550.399902 Z M 795.400024 890.599976 C 794.200012 890.599976 793 890.599976 791.700012 890.599976 C 791.700012 888.599976 791.700012 886.5 791.700012 884.5 C 793.099976 884.699951 793.900024 884.199951 794.099976 883.300049 C 798.200012 884 795.900024 887.900024 795.400024 890.599976 Z M 899.299988 798.099976 C 888.099976 809 866.099976 827.5 842.900024 828 C 842.599976 828 842.299988 828 842 828 C 827.900024 828 809.299988 821.199951 798.799988 789.5 C 797.700012 786.400024 798.700012 782.900024 801.299988 780.800049 C 804.599976 778.099976 808.400024 774.900024 812.299988 771.5 C 827.799988 758.099976 847.099976 741.5 867.299988 732 C 893 719.900024 914.5 722.199951 931.099976 738.900024 C 933.099976 740.900024 933.900024 743.900024 933.099976 746.699951 C 928.700012 762.099976 915.799988 781.800049 899.299988 798.099976 Z M 875.299988 1887 C 879.099976 1891.200073 877.900024 1894.5 882 1898.700073 C 878.099976 1902.400024 879.700012 1904.400024 883.900024 1907.800049 C 876.400024 1905.700073 876.5 1912.800049 872.200012 1914.5 C 871.200012 1910.5 876.700012 1907.700073 875 1903.599976 C 871.799988 1898.5 867.599976 1899.400024 864.299988 1894.700073 C 867.900024 1892.099976 871.599976 1889.599976 875.299988 1887 Z M 647.900024 1695.099976 C 659.5 1707.800049 672.299988 1750.300049 648.099976 1738.200073 C 650.299988 1733.599976 656.299988 1729.700073 655 1724.5 C 647.799988 1717.200073 638.900024 1719.599976 630.799988 1717.5 C 629.5 1708 635.5 1697.099976 647.900024 1695.099976 Z M 582 1739.400024 C 587.299988 1745.400024 598.700012 1754.400024 598.099976 1762.5 C 592.299988 1765.200073 588.299988 1758.200073 582.200012 1763.200073 C 579.799988 1754.200073 569.700012 1749 562 1753.400024 C 559.599976 1749.800049 563.200012 1747.200073 559.400024 1743.300049 C 563.799988 1741.400024 566.900024 1747 571 1747.099976 C 574.599976 1744.599976 578.299988 1742 582 1739.400024 Z M 621.299988 1962.5 C 615.400024 1965.700073 614 1972.200073 609.799988 1976.599976 C 596.700012 1976.5 587.5 1958.300049 595.400024 1946.599976 C 603.400024 1944.5 609.200012 1945.400024 615.099976 1946.099976 C 612.299988 1953.900024 619.200012 1956.900024 621.299988 1962.5 Z M 573.5 1796.599976 C 562.5 1793.700073 559.599976 1802.900024 551.5 1799 C 558.799988 1795.700073 553.799988 1780.099976 560.099976 1775.800049 C 563.299988 1776.700073 564.299988 1779.700073 563.799988 1784.400024 C 573.200012 1783.200073 575.700012 1775.099976 583.400024 1772.200073 C 583.5 1777.800049 586.900024 1780.099976 585.799988 1786.900024 C 583.5 1791.900024 571.5 1787.200073 573.5 1796.599976 Z M 555 1767.099976 C 553.299988 1763.400024 551.099976 1762.900024 549.099976 1760.800049 C 549.599976 1757.700073 552.299988 1759.200073 554.799988 1758.300049 C 554.099976 1761.099976 559.799988 1765 555 1767.099976 Z M 554.799988 1704.700073 C 552.5 1713.800049 571 1720.599976 560.700012 1730.400024 C 557.900024 1729.900024 555.799988 1725.099976 553.400024 1722.099976 C 549.099976 1725.099976 553.200012 1729.700073 548.900024 1732.700073 C 537 1724.599976 539 1699.800049 554.799988 1704.700073 Z M 497.200012 1884.599976 C 504.899994 1883.900024 514.599976 1880.5 519.299988 1883.800049 C 517.900024 1886.700073 516.900024 1889.900024 511.600006 1889.900024 C 511.899994 1894.800049 514.900024 1896.099976 519.799988 1894.900024 C 512.700012 1904.800049 491.5 1900.200073 497.200012 1884.599976 Z M 476.200012 1726.599976 C 486.100006 1731 491.700012 1746.700073 493 1755.099976 C 487.299988 1756 482.299988 1752.900024 476.399994 1754.700073 C 469.600006 1744.099976 462.700012 1733.5 476.200012 1726.599976 Z M 471.799988 1932.300049 C 480.600006 1949.700073 464.299988 1962.599976 456.700012 1977 C 450.299988 1973.599976 444 1969.300049 438.100006 1963.099976 C 440.200012 1954.700073 452.799988 1948.200073 459.700012 1940.599976 C 458.700012 1939.5 458.700012 1938.700073 459.299988 1937.900024 C 452.700012 1924.099976 439.799988 1945.300049 431.799988 1939.099976 C 437.600006 1909.5 480.899994 1902.599976 500.799988 1912 C 506.700012 1908.400024 508.5 1904 515.200012 1900.5 C 520.099976 1908.599976 527.5 1912.5 525.799988 1920 C 517 1921.900024 508.399994 1922 501 1916.400024 C 496.5 1930.599976 479.399994 1926 471.799988 1932.300049 Z M 523.099976 2033.200073 C 522.599976 2035.5 522.200012 2037.900024 522 2040.200073 C 529.5 2042.099976 536 2047.700073 539.700012 2057.799805 C 532.200012 2058.100098 524.5 2065.299805 524 2071.700195 C 519.799988 2072.200195 516 2070.700195 511.200012 2074.700195 C 508.5 2071.899902 512.099976 2070.200195 510.700012 2067.600098 C 508.600006 2066.5 505.899994 2068.200195 503.600006 2068.100098 C 503.600006 2062.5 502.5 2056.700195 500.899994 2050.799805 C 498.899994 2050.299805 497 2050.299805 495.200012 2050.899902 C 490 2037.700073 500.600006 2011.599976 518.400024 2010.200073 C 524 2014.900024 524.799988 2020.300049 524.299988 2025.900024 C 535.099976 2022.900024 547.400024 2021 555.099976 2015.700073 C 555.200012 2021.900024 558.400024 2023.800049 558.5 2030 C 550 2028.800049 535.5 2031.300049 523.099976 2033.200073 Z M 566.200012 1866.599976 C 557.900024 1860.900024 547.099976 1868.599976 539.299988 1860 C 549.599976 1852.800049 559.700012 1849.200073 565.700012 1840.099976 C 573.799988 1847 565.599976 1858.200073 566.200012 1866.599976 Z M 560.400024 1834.800049 C 543.400024 1828.300049 548.400024 1807.5 565.099976 1798.700073 C 566.400024 1801.400024 568.400024 1799.599976 569.599976 1803 C 568.900024 1807.5 565.700012 1803.900024 562.900024 1806.200073 C 563.599976 1811.200073 571.5 1812.099976 575 1817.200073 C 570 1823.099976 567.900024 1829.5 560.400024 1834.800049 Z M 603.200012 2042 C 593.099976 2043.200073 579.5 2032.800049 577.299988 2019.800049 C 587.799988 2017.400024 599.200012 2020.800049 602.200012 2008.5 C 602.799988 2019.599976 609.400024 2032 603.200012 2042 Z M 632.900024 2141.5 C 624.099976 2143.799805 613.5 2145.700195 612.099976 2134.200195 C 610.900024 2123.600098 623.700012 2113.600098 636.599976 2120.700195 C 635.299988 2127.600098 633.700012 2134.100098 632.900024 2141.5 Z M 634.400024 2005.400024 C 626.799988 1990.700073 613.599976 2007.200073 603.799988 2004.300049 C 604.5 1996.099976 598.700012 1998.599976 594.099976 1994.700073 C 603 1978.900024 618 1973 629.599976 1987.900024 C 633.099976 1989.800049 637.299988 1987.300049 641.099976 1987.300049 C 638.299988 1993.200073 641.400024 2000.200073 634.400024 2005.400024 Z M 640.5 1853.599976 C 633.400024 1850.599976 626.5 1830.599976 617.200012 1826.599976 C 614.599976 1826.599976 610 1833.900024 605.799988 1831.599976 C 606.799988 1822.300049 599.200012 1807.099976 611 1802.700073 C 614.599976 1806 611 1808 612.200012 1810.800049 C 618.799988 1816.400024 626.900024 1813.800049 633.700012 1818.200073 C 634.700012 1822.5 630.599976 1825.800049 629.900024 1829.800049 C 631.900024 1833.300049 635 1830.5 637.400024 1832 C 644.099976 1840.200073 642.799988 1847 640.5 1853.599976 Z M 659.5 2075.799805 C 655.200012 2067.200195 645.599976 2061.700195 643.799988 2055.399902 C 649.799988 2036.800049 672.799988 2041.5 681.200012 2057.700195 C 675.900024 2064.100098 668.200012 2070 659.5 2075.799805 Z M 667 1887.400024 C 654.799988 1864.900024 671.400024 1843.200073 649.799988 1821.900024 C 653 1817.5 663.599976 1809.099976 668.599976 1810.300049 C 673.400024 1826.599976 675.900024 1842.800049 691.900024 1856.700073 C 690.400024 1862 685.5 1866.700073 689.799988 1873 C 680.700012 1875.200073 675.299988 1885.5 667 1887.400024 Z M 690.900024 1915.400024 C 692.400024 1912.599976 699.799988 1914.200073 695.799988 1907.5 C 714.099976 1906 716 1935 715.200012 1946.099976 C 718.900024 1950.200073 723.200012 1950.599976 726.599976 1956.099976 C 717.599976 1963.900024 717 1973.099976 713.200012 1981.800049 C 705.599976 1975.099976 697.400024 1971.900024 690.700012 1960.200073 C 690.799988 1954.400024 699 1950 705.700012 1945.300049 C 694.700012 1938.900024 696.599976 1925.900024 690.900024 1915.400024 Z M 698.5 2059.100098 C 676 2043 709.900024 2031.599976 719.200012 2041.700073 C 715.599976 2048.100098 702.200012 2052.700195 698.5 2059.100098 Z M 735.400024 2035 C 721 2026.800049 718.700012 2005 736.400024 2000 C 750.400024 2011.099976 743.5 2025 735.400024 2035 Z M 727.599976 1799 C 727.900024 1791.900024 739.900024 1796.599976 739.799988 1789.200073 C 734.5 1787.099976 725.599976 1788.700073 726.299988 1780.599976 C 730.599976 1777.599976 736.299988 1776 742.200012 1774.5 C 749.900024 1780.099976 742.099976 1794.200073 745.900024 1802.599976 C 738.5 1808.200073 732.299988 1804.900024 727.599976 1799 Z M 775.5 1835.700073 C 770.700012 1838.200073 766.099976 1839 762.299988 1836 C 773.5 1824.200073 755.599976 1807.300049 763.5 1794.900024 C 767.5 1800.099976 772.400024 1800.5 777.799988 1798.400024 C 777.299988 1791.900024 771 1789 769 1783.599976 C 758.700012 1756.099976 801.200012 1758.400024 799.599976 1789.099976 C 801.799988 1793.400024 804.799988 1792.800049 806.900024 1797.400024 C 805.900024 1818.099976 760 1812.099976 775.5 1835.700073 Z M 826.5 2102.5 C 830.900024 2102.299805 834.5 2103.299805 835.900024 2107.299805 C 831 2108 826.700012 2108 826.5 2102.5 Z M 829.700012 1980.900024 C 826.400024 1983.099976 822.299988 1984.300049 817.5 1983.800049 C 811.400024 1972.5 805.599976 1961.099976 812.200012 1954.700073 C 816.599976 1950.400024 822.200012 1951.800049 828 1953 C 834.799988 1950.800049 842 1948.700073 844 1946.5 C 850.900024 1953 845.599976 1965.400024 849.200012 1972.900024 C 845.200012 1976.5 837.299988 1979.900024 829.700012 1980.900024 Z M 871.400024 2001.400024 C 865.299988 1994.400024 856.200012 1987 855.299988 1978.300049 C 862.599976 1980 870.400024 1979 877.099976 1984 C 875.700012 1987 872.599976 1989.599976 871.200012 1992.599976 C 872.400024 1995.800049 877.299988 1996.5 871.400024 2001.400024 Z M 895.700012 2184.100098 C 884.299988 2173.399902 879.799988 2156.799805 894.299988 2147.799805 C 906.200012 2162 892.400024 2171.5 895.700012 2184.100098 Z M 883.5 2027.300049 C 893.099976 2029.099976 901.900024 2035.900024 911.200012 2039.300049 C 905.099976 2064.700195 853.799988 2052.100098 883.5 2027.300049 Z M 948.700012 2466.299805 C 939.5 2466.799805 926.599976 2460.099854 920.700012 2469.199951 C 910.200012 2446.399902 926 2428.199951 945.700012 2421 C 950 2435.799805 958.599976 2455.399902 948.700012 2466.299805 Z M 997.700012 882.400024 C 1000.599976 884.300049 1002 887.699951 1001.200012 891 C 1000.700012 893.300049 1000.099976 895.599976 999.599976 897.900024 C 996.099976 913.5 992.400024 929.699951 983.200012 941.400024 C 974.5 952.400024 962.5 957.800049 946.700012 957.800049 C 942.299988 957.800049 937.599976 957.300049 932.599976 956.5 C 931.200012 956.199951 929.900024 955.599976 928.799988 954.699951 C 906.200012 935.800049 909.799988 913.199951 920.700012 898.300049 C 934.099976 880.099976 961 869.099976 985 876.5 C 990.799988 875.199951 996.700012 874.099976 1002 872.300049 C 999.5 875 996.5 877.5 993.700012 880.099976 C 995.099976 880.800049 996.400024 881.599976 997.700012 882.400024 Z M 991.700012 571.199951 C 995.099976 568.199951 997.900024 573.100098 1002.700012 572.399902 C 1002.799988 566.600098 997.099976 566.600098 996.599976 561.399902 C 1003.299988 562.5 1006.599976 565.100098 1012.5 561.399902 C 1015.099976 569 1014.599976 579.699951 1016.200012 588.300049 C 1003.200012 597.899902 990.900024 586.199951 991.700012 571.199951 Z M 1029.900024 2244.199951 C 1022.299988 2231.100098 1017.099976 2218.5 1019 2207.100098 C 1022.299988 2205.100098 1025.900024 2201.299805 1028.699951 2201.799805 C 1029.400024 2202.799805 1030 2204.200195 1030.5 2205.600098 C 1031.900024 2203.600098 1033.5 2201.5 1035.099976 2199.299805 C 1029.900024 2190 1023.900024 2179.799805 1026 2172.399902 C 1026 2172.399902 1026 2172.399902 1025.900024 2172.399902 C 1016.5 2177.700195 1025.300049 2186.799805 1016.099976 2193.700195 C 1015.400024 2192.200195 1014.599976 2190.799805 1013.900024 2189.299805 C 1012.700012 2183.100098 1018.599976 2179.299805 1018.299988 2173.399902 C 1021.400024 2171.799805 1024.800049 2170.200195 1027.900024 2168.600098 C 1029.599976 2166.5 1032.300049 2164.799805 1036.400024 2163.5 C 1036.400024 2163.5 1036.400024 2163.600098 1036.5 2163.600098 C 1037.199951 2163.100098 1037.900024 2162.5 1038.599976 2161.899902 C 1039.300049 2164.200195 1040 2166.799805 1040.900024 2169.5 C 1048.900024 2178.700195 1060.199951 2186.200195 1064.900024 2195.100098 C 1065.900024 2194.799805 1067 2194.299805 1068.099976 2193.600098 C 1069 2197.899902 1068.900024 2202 1067 2205.399902 C 1066.800049 2206.899902 1066.400024 2208.5 1065.800049 2210.100098 C 1065.5 2209.399902 1065.199951 2208.799805 1064.900024 2208.299805 C 1063.099976 2210.100098 1060.599976 2211.600098 1057.199951 2212.799805 C 1053.699951 2211.600098 1055.5 2208.899902 1055 2206.100098 C 1044.900024 2215.799805 1055.099976 2229.100098 1058.099976 2241.099854 C 1058.699951 2240.799805 1059.300049 2240.5 1059.900024 2240.199951 C 1063.099976 2241.5 1064.599976 2247.799805 1067 2251.699951 C 1063.199951 2251.199951 1059.599976 2250 1056.800049 2246.599854 C 1046.300049 2254.199951 1040.599976 2235.200195 1029.900024 2244.199951 Z M 1048.400024 2291.199951 C 1035.5 2289.399902 1046.300049 2275.699951 1045.699951 2269.299805 C 1051.699951 2270.399902 1058.800049 2268.399902 1065.400024 2267.699951 C 1065.199951 2271.599854 1067.800049 2276.399902 1067.599976 2280.299805 C 1061.400024 2283.299805 1058.199951 2277.399902 1052.300049 2279.799805 C 1047.5 2282.399902 1050 2287.5 1048.400024 2291.199951 Z M 1055.5 2433.899902 C 1063.199951 2431.699951 1071.099976 2428.899902 1076.300049 2434.5 C 1078 2442.699951 1067.400024 2446.699951 1070.300049 2455.299805 C 1061 2452.899902 1052.800049 2445.199951 1055.5 2433.899902 Z"/>
        <path id="path118" fill="#000000" stroke="none" d="M 1574.5 1937.400024 C 1576.199951 1935.300049 1577.800049 1933.099976 1579.400024 1930.900024 C 1579.300049 1930.900024 1579.300049 1930.800049 1579.199951 1930.800049 C 1575.400024 1932.599976 1574.300049 1934.900024 1574.5 1937.400024 Z"/>
        <path id="path119" fill="#000000" stroke="none" d="M 1924.699951 130.699951 C 1924.400024 131.899902 1924.099976 133.100098 1923.699951 134.300049 C 1924.400024 134.5 1925 134.699951 1925.699951 134.899902 C 1925.5 133.399902 1925.199951 132 1924.699951 130.699951 Z"/>
        <path id="path120" fill="#000000" stroke="none" d="M 809.400024 2245.599854 C 808.900024 2244.599854 808.900024 2243.5 809.099976 2242.199951 C 789.900024 2244.899902 771.099976 2246.5 752.599976 2247.199951 C 753.400024 2247.799805 754 2248.699951 754.200012 2249.799805 C 753.5 2250.799805 752.700012 2251.799805 752 2252.699951 C 748.900024 2251.099854 748.099976 2249.199951 746.700012 2247.399902 C 742 2247.5 737.400024 2247.599854 732.700012 2247.599854 C 725.5 2247.599854 718.5 2247.5 711.400024 2247.199951 C 714.700012 2250.699951 716.5 2255.5 715.099976 2260.599854 C 711.700012 2263.099854 701.799988 2263.899902 700.700012 2272.099854 C 689.599976 2269.099854 686.099976 2254.099854 690.599976 2246.099854 C 620.700012 2241.299805 556 2225.399902 496.200012 2210.700195 C 484 2207.600098 472.100006 2204.700195 460.5 2202 C 480 2223.799805 508 2239.899902 546.900024 2252 C 558.400024 2255.599854 570.5 2258.599854 583 2261.299805 C 582.299988 2260.299805 581.700012 2259.299805 581 2258.5 C 586.799988 2255.099854 588 2251 594.400024 2247.699951 C 595.700012 2250.399902 597.299988 2251.899902 599 2252.799805 C 598.299988 2248.699951 597.099976 2244.299805 598.5 2241.799805 C 607.599976 2235.899902 610.900024 2245 619.799988 2243.599854 C 627.299988 2261.899902 610.200012 2265 601.200012 2258.099854 C 599.299988 2259.5 598.200012 2261.799805 597.200012 2264.299805 C 628.099976 2270.199951 660.799988 2274.399902 692.900024 2278.399902 C 734.299988 2283.599854 777.099976 2288.899902 815.599976 2298.199951 L 815.599976 2242.199951 C 814 2243.899902 812.099976 2245.199951 809.400024 2245.599854 Z M 657.299988 2271.199951 C 653.400024 2266.5 651.900024 2259.5 646.299988 2256.5 C 647.599976 2252.5 649.700012 2249.299805 654.900024 2249.199951 C 656.5 2251.199951 658.099976 2253.299805 657.299988 2257.799805 C 661.799988 2260.299805 667.5 2261.399902 670.799988 2265.099854 C 671.900024 2272.699951 663.799988 2271.099854 657.299988 2271.199951 Z"/>
    </g>
</svg>
